<svg id="Layer_1" data-name="Layer 1" xmlns="http://www.w3.org/2000/svg" viewBox="0 0 318.81 99.32">
  <defs>
    <style>
      .cls-1 {
        fill: #00263d;
      }

      .cls-2 {
        fill: #778692;
      }

      .cls-3 {
        fill: #0082ca;
      }

      .cls-4 {
        fill: #57c1e8;
      }
    </style>
  </defs>
  <title>Artboard 1100</title>
  <g>
    <g id="_Group_" data-name="&lt;Group&gt;">
      <path id="_Compound_Path_" data-name="&lt;Compound Path&gt;" class="cls-1" d="M82.25,10.88a5.7,5.7,0,0,1,1-.28,6.26,6.26,0,0,1,1.32-.14,3.33,3.33,0,0,1,1.62.4,2.74,2.74,0,0,1,1.15,1.53L98.18,42H93.91l-3.15-8.46H78.07L75,42H70.88Zm7.43,19.36-5.26-15-5.31,15Z"/>
      <path id="_Compound_Path_2" data-name="&lt;Compound Path&gt;" class="cls-1" d="M100.86,19.71a4,4,0,0,1,.54,0h.31a3.51,3.51,0,0,1,2.28.71,3.05,3.05,0,0,1,.87,2.49V33.81a13,13,0,0,0,.26,2.91,2.69,2.69,0,0,0,1.06,1.64,4.09,4.09,0,0,0,1.53.7,8.55,8.55,0,0,0,1.9.19,7.33,7.33,0,0,0,2.33-.35,7.16,7.16,0,0,0,1.81-.87,4.71,4.71,0,0,0,1.17-1.1,1.88,1.88,0,0,0,.42-1.06V19.71a4,4,0,0,1,.54,0h.31a3.51,3.51,0,0,1,2.28.71,3.05,3.05,0,0,1,.87,2.49V42h-4V40a8.43,8.43,0,0,1-2.63,1.93,9.79,9.79,0,0,1-4.37.85,8.72,8.72,0,0,1-4.23-.85,5.61,5.61,0,0,1-2.23-2.16,7.22,7.22,0,0,1-.87-2.89q-.14-1.57-.14-3Z"/>
      <path id="_Compound_Path_3" data-name="&lt;Compound Path&gt;" class="cls-1" d="M140.48,25.49a9.42,9.42,0,0,0-2.07-1.76,6.25,6.25,0,0,0-3.43-.82,7,7,0,0,0-3.05.61,5.59,5.59,0,0,0-2.09,1.72,7.25,7.25,0,0,0-1.2,2.58,12.82,12.82,0,0,0-.38,3.17,13.6,13.6,0,0,0,.38,3.27,7.48,7.48,0,0,0,1.2,2.66A5.8,5.8,0,0,0,132,38.7a7,7,0,0,0,3.15.66,6.15,6.15,0,0,0,2.28-.4,7.58,7.58,0,0,0,1.72-.92,6.28,6.28,0,0,0,1.5-1.32q.19.19.45.49t.52.66a3.87,3.87,0,0,1,.42.73,1.77,1.77,0,0,1,.16.71q0,.66-1,1.5a7.36,7.36,0,0,1-2.56,1.36,12.78,12.78,0,0,1-4.06.56,14.67,14.67,0,0,1-3.31-.42,8.4,8.4,0,0,1-3.38-1.69,9.89,9.89,0,0,1-2.66-3.55,14.21,14.21,0,0,1-1.08-6,12.8,12.8,0,0,1,1.13-5.73A10.24,10.24,0,0,1,128,21.76a10,10,0,0,1,3.5-1.81,12.4,12.4,0,0,1,3.27-.52,11.94,11.94,0,0,1,3,.35,9.84,9.84,0,0,1,2.3.89,5.36,5.36,0,0,1,1.48,1.15,1.86,1.86,0,0,1,.52,1.17,2.76,2.76,0,0,1-.38,1.27,10.51,10.51,0,0,1-.75,1.22Z"/>
      <path id="_Compound_Path_4" data-name="&lt;Compound Path&gt;" class="cls-1" d="M146.07,13.18a4,4,0,0,1,.54,0h.31a3.51,3.51,0,0,1,2.28.71,3.05,3.05,0,0,1,.87,2.49v3.62h7v3.38h-7V35.46q0,3.85,3.05,3.85a3.82,3.82,0,0,0,1.41-.26,6.54,6.54,0,0,0,1.2-.61,5.43,5.43,0,0,0,.87-.68,3.91,3.91,0,0,0,.42-.47,13.1,13.1,0,0,1,1,1.36,2.46,2.46,0,0,1,.4,1.27,1.46,1.46,0,0,1-.42.92,4.3,4.3,0,0,1-1.17.92,7.68,7.68,0,0,1-1.86.71,9.77,9.77,0,0,1-2.42.28,7.12,7.12,0,0,1-3.9-.94,5.11,5.11,0,0,1-2.07-2.58,7,7,0,0,1-.4-2q-.07-1.06-.07-2.09Z"/>
      <path id="_Compound_Path_5" data-name="&lt;Compound Path&gt;" class="cls-1" d="M161.2,12.71a2.65,2.65,0,0,1,.73-1.93,2.55,2.55,0,0,1,3.62,0,2.66,2.66,0,0,1,.73,1.93,2.54,2.54,0,1,1-5.08,0Zm.7,7a4,4,0,0,1,.54,0h.31a3.51,3.51,0,0,1,2.28.71,3.05,3.05,0,0,1,.87,2.49V37.81a3.46,3.46,0,0,0,.4,1.93q.4.56,1.86.56V42a6.5,6.5,0,0,1-1.15.23,11.33,11.33,0,0,1-1.43.09,4.22,4.22,0,0,1-2.09-.42,2.67,2.67,0,0,1-1.08-1.13,4.25,4.25,0,0,1-.42-1.57q-.07-.87-.07-1.72Z"/>
      <path id="_Compound_Path_6" data-name="&lt;Compound Path&gt;" class="cls-1" d="M191.79,30.9a17.34,17.34,0,0,1-.56,4.44,10.73,10.73,0,0,1-1.81,3.78,9,9,0,0,1-3.22,2.63,10.63,10.63,0,0,1-4.79,1,11,11,0,0,1-4.75-.94,8.68,8.68,0,0,1-3.2-2.51,10.22,10.22,0,0,1-1.79-3.71,17.73,17.73,0,0,1-.56-4.54,14.93,14.93,0,0,1,.66-4.46,10.58,10.58,0,0,1,2-3.69A9.66,9.66,0,0,1,177,20.37a10.45,10.45,0,0,1,4.58-.94,10.69,10.69,0,0,1,4.68.94,8.76,8.76,0,0,1,3.17,2.51,10.29,10.29,0,0,1,1.79,3.64A16.56,16.56,0,0,1,191.79,30.9Zm-4.23,0a16.32,16.32,0,0,0-.26-2.89,8.06,8.06,0,0,0-.92-2.58,5.09,5.09,0,0,0-1.83-1.86,5.88,5.88,0,0,0-3.05-.71,5.81,5.81,0,0,0-3,.71,5.41,5.41,0,0,0-1.9,1.86,8.18,8.18,0,0,0-1,2.58,13.8,13.8,0,0,0-.31,2.89,17,17,0,0,0,.26,2.94,8.16,8.16,0,0,0,1,2.7,5.88,5.88,0,0,0,1.88,2,5.36,5.36,0,0,0,3,.78,5.69,5.69,0,0,0,3.1-.78,5.4,5.4,0,0,0,1.88-2,8.6,8.6,0,0,0,.92-2.7A17.52,17.52,0,0,0,187.56,30.94Z"/>
      <path id="_Compound_Path_7" data-name="&lt;Compound Path&gt;" class="cls-1" d="M196.59,19.85a4,4,0,0,1,.52,0h.28a3.62,3.62,0,0,1,1.95.54,2.45,2.45,0,0,1,1.06,1.86,9.94,9.94,0,0,1,2.94-1.93,10.53,10.53,0,0,1,4.39-.85,7.45,7.45,0,0,1,4.89,1.41,6.49,6.49,0,0,1,2.21,3.52,10.41,10.41,0,0,1,.28,2.09q0,1.15,0,2.23V42h-4V28.83q0-.89,0-1.72a5.33,5.33,0,0,0-.26-1.53,3.34,3.34,0,0,0-1.39-1.88,5.62,5.62,0,0,0-3-.66,9.69,9.69,0,0,0-2.44.28,6.57,6.57,0,0,0-1.83.75A3.94,3.94,0,0,0,201,25.16a2.14,2.14,0,0,0-.42,1.22V42h-4Z"/>
      <path id="_Compound_Path_8" data-name="&lt;Compound Path&gt;" class="cls-1" d="M233.24,25.12a6.58,6.58,0,0,0-2.33-1.72,7.5,7.5,0,0,0-3.27-.73,8.58,8.58,0,0,0-1.34.12,5,5,0,0,0-1.36.42,2.85,2.85,0,0,0-1.06.87,2.28,2.28,0,0,0-.42,1.41,2.2,2.2,0,0,0,.35,1.27,3,3,0,0,0,1,.89,6.71,6.71,0,0,0,1.48.63q.85.26,1.83.49a22,22,0,0,1,2.73.82,9,9,0,0,1,2.33,1.27,5.57,5.57,0,0,1,1.6,2,6.49,6.49,0,0,1,.59,2.91,6.23,6.23,0,0,1-.71,3,6.56,6.56,0,0,1-1.88,2.16A8.43,8.43,0,0,1,230,42.25a11.92,11.92,0,0,1-3.27.45,15.44,15.44,0,0,1-3-.26,11.51,11.51,0,0,1-2.21-.63,4.73,4.73,0,0,1-1.64-1,1.47,1.47,0,0,1-.47-1,2.84,2.84,0,0,1,.33-1.27q.33-.66.85-1.5a10.46,10.46,0,0,0,.92.68,11.15,11.15,0,0,0,1.41.8,9.77,9.77,0,0,0,1.81.66,8.33,8.33,0,0,0,2.11.26,8.05,8.05,0,0,0,1.64-.16,4.58,4.58,0,0,0,1.43-.54,3,3,0,0,0,1-1,3.12,3.12,0,0,0,.4-1.64,2.87,2.87,0,0,0-.42-1.62,3.48,3.48,0,0,0-1.13-1.06,6.84,6.84,0,0,0-1.57-.68q-.87-.26-1.76-.45a19.22,19.22,0,0,1-2.61-.73,7.86,7.86,0,0,1-2.21-1.2,5.73,5.73,0,0,1-1.55-1.86,5.79,5.79,0,0,1-.59-2.75,5.61,5.61,0,0,1,.66-2.75A5.68,5.68,0,0,1,222,21a8.51,8.51,0,0,1,2.56-1.17,11.07,11.07,0,0,1,3-.4,13.25,13.25,0,0,1,3.27.38,9.46,9.46,0,0,1,2.37.89,4,4,0,0,1,1.27,1,1.48,1.48,0,0,1,.33.87,3.46,3.46,0,0,1-.26,1.2,9.44,9.44,0,0,1-.63,1.34Z"/>
      <path id="_Compound_Path_9" data-name="&lt;Compound Path&gt;" class="cls-1" d="M261.25,19.81a11.7,11.7,0,0,1-1,5.17,9.08,9.08,0,0,1-2.8,3.41,11.33,11.33,0,0,1-4.09,1.86,20.77,20.77,0,0,1-4.91.56h-2.26V42h-6.49V10.74q2.11-.23,4.32-.35t4-.12q6.91,0,10.08,2.42A8.4,8.4,0,0,1,261.25,19.81Zm-6.58.33A4.73,4.73,0,0,0,253,16a7.18,7.18,0,0,0-4.35-1.22,19.19,19.19,0,0,0-2.54.14V26.25h1.55a8.61,8.61,0,0,0,5.22-1.34Q254.67,23.57,254.67,20.14Z"/>
      <path id="_Compound_Path_10" data-name="&lt;Compound Path&gt;" class="cls-1" d="M270.88,42.32a3.5,3.5,0,0,1-.89.14c-.44,0-.92,0-1.46,0a6.93,6.93,0,0,1-1.53-.16,3.18,3.18,0,0,1-1.29-.61,3,3,0,0,1-.89-1.2,4.83,4.83,0,0,1-.33-1.93V8.9a4,4,0,0,1,.75-.12,13.34,13.34,0,0,1,1.41-.07,8.15,8.15,0,0,1,1.5.14,3.74,3.74,0,0,1,1.36.54,2.91,2.91,0,0,1,1,1.13,4.16,4.16,0,0,1,.38,1.9Z"/>
      <path id="_Compound_Path_11" data-name="&lt;Compound Path&gt;" class="cls-1" d="M296.31,42H292q-1.18,0-1.48-.63a4.41,4.41,0,0,1-.31-1.86,7.55,7.55,0,0,1-2.44,2,9.2,9.2,0,0,1-4.46.92,7.67,7.67,0,0,1-4.93-1.32,6,6,0,0,1-2.07-3.48,14.94,14.94,0,0,1-.31-2.35Q276,34,276,32.82v-13a3.92,3.92,0,0,1,.75-.12,13.34,13.34,0,0,1,1.41-.07,8.15,8.15,0,0,1,1.5.14,3.74,3.74,0,0,1,1.36.54,2.91,2.91,0,0,1,1,1.13,4.16,4.16,0,0,1,.38,1.9v9.21q0,1.08.07,2a4.23,4.23,0,0,0,.38,1.5,2.15,2.15,0,0,0,1,1,4.2,4.2,0,0,0,1.9.35,5.81,5.81,0,0,0,3-.73,2.11,2.11,0,0,0,1.25-1.81v-15a3.93,3.93,0,0,1,.75-.12,13.34,13.34,0,0,1,1.41-.07,7,7,0,0,1,1.5.16,3.59,3.59,0,0,1,1.36.61,3.22,3.22,0,0,1,1,1.22,4.47,4.47,0,0,1,.38,2Z"/>
      <path id="_Compound_Path_12" data-name="&lt;Compound Path&gt;" class="cls-1" d="M316.84,22.39a4.1,4.1,0,0,1-.45,1.67,18,18,0,0,1-1,1.81,11.62,11.62,0,0,0-1.13-.75,12,12,0,0,0-1.55-.78,12.58,12.58,0,0,0-1.79-.59,7.54,7.54,0,0,0-1.83-.24,8.78,8.78,0,0,0-1.08.07,3.28,3.28,0,0,0-1,.28,2,2,0,0,0-.75.61,1.69,1.69,0,0,0-.31,1.06q0,1.6,3.43,2.35a25.23,25.23,0,0,1,2.8.73,8.83,8.83,0,0,1,2.49,1.25,5.84,5.84,0,0,1,2.47,5.08,7.37,7.37,0,0,1-.73,3.34,7.05,7.05,0,0,1-2,2.44,9.06,9.06,0,0,1-3,1.5,12.92,12.92,0,0,1-3.74.52,17,17,0,0,1-3.52-.31,12,12,0,0,1-2.35-.73,8.23,8.23,0,0,1-1.43-.82,1.71,1.71,0,0,1-.78-1.48,3.51,3.51,0,0,1,.47-1.67q.47-.87,1.08-1.81a8.06,8.06,0,0,0,1.06.78,10.47,10.47,0,0,0,1.46.75,11.53,11.53,0,0,0,1.76.59,7.87,7.87,0,0,0,1.93.24,9,9,0,0,0,1.27-.09,3.22,3.22,0,0,0,1.15-.38,2.52,2.52,0,0,0,.82-.75,2.09,2.09,0,0,0,.33-1.22,2.06,2.06,0,0,0-1.06-2,11.44,11.44,0,0,0-3.17-1,18.13,18.13,0,0,1-2.63-.75,8.26,8.26,0,0,1-2.26-1.25,5.65,5.65,0,0,1-1.57-2,6.35,6.35,0,0,1-.59-2.87,5.7,5.7,0,0,1,.75-3,7.09,7.09,0,0,1,2-2.16,8.94,8.94,0,0,1,2.89-1.34,13.07,13.07,0,0,1,3.43-.45,18.06,18.06,0,0,1,3.36.28,12.2,12.2,0,0,1,2.56.75Q316.75,21,316.84,22.39Z"/>
    </g>
    <g id="_Group_2" data-name="&lt;Group&gt;">
      <path id="_Compound_Path_13" data-name="&lt;Compound Path&gt;" class="cls-2" d="M16.23,93.24l3-18.05q1.06-.13,2-.2t2.16-.07a8.22,8.22,0,0,1,2.48.33,4.78,4.78,0,0,1,1.67.88,3.35,3.35,0,0,1,.95,1.29,4.13,4.13,0,0,1,.3,1.57,5.22,5.22,0,0,1-.3,1.83,4.8,4.8,0,0,1-1.83,2.36,6.54,6.54,0,0,1-1.18.64,4.47,4.47,0,0,1,.94.43,3.89,3.89,0,0,1,.92.77,4.42,4.42,0,0,1,.7,1.1,3.42,3.42,0,0,1,.28,1.44,6,6,0,0,1-.53,2.63,4.61,4.61,0,0,1-1.48,1.76,6.4,6.4,0,0,1-2.32,1,13.62,13.62,0,0,1-3,.31Zm9.62-5.58a2.44,2.44,0,0,0-1-2.16,4.3,4.3,0,0,0-2.49-.69H19.86l-1.11,6.61h2.39a5.8,5.8,0,0,0,3.55-.89A3.39,3.39,0,0,0,25.85,87.66Zm.54-8.32a2.44,2.44,0,0,0-.75-2,3.67,3.67,0,0,0-2.37-.62l-1.1,0a9.74,9.74,0,0,0-1,.08l-1,6.15h2.41a3.73,3.73,0,0,0,2.85-1A3.67,3.67,0,0,0,26.39,79.34Z"/>
      <path id="_Compound_Path_14" data-name="&lt;Compound Path&gt;" class="cls-2" d="M40.6,90.67c0,.11,0,.21,0,.3a2.67,2.67,0,0,0,0,.27,1,1,0,0,0,.16.61.73.73,0,0,0,.6.2,2,2,0,0,0,.52-.08L42,93a2.83,2.83,0,0,1-.8.3,3.79,3.79,0,0,1-.83.11A2.3,2.3,0,0,1,38.9,93a2,2,0,0,1-.64-1.33,6.34,6.34,0,0,1-.72.76,4.58,4.58,0,0,1-1.9,1,4.9,4.9,0,0,1-1.31.16,3.2,3.2,0,0,1-2.6-1,3.91,3.91,0,0,1-.84-2.6,10.91,10.91,0,0,1,.16-1.84l1.27-7.72a2.51,2.51,0,0,1,.49-.05,1.38,1.38,0,0,1,1.17.46,1.87,1.87,0,0,1,.35,1.17q0,.13,0,.33a2.72,2.72,0,0,1,0,.33l-.92,5.5c0,.22-.06.44-.08.68s0,.47,0,.71a2.66,2.66,0,0,0,.45,1.61,1.74,1.74,0,0,0,1.5.61,2.86,2.86,0,0,0,1.14-.24,3.26,3.26,0,0,0,1-.71,4.68,4.68,0,0,0,.8-1.08,4.56,4.56,0,0,0,.47-1.41l1.3-7.89a2.51,2.51,0,0,1,.49-.05,1.38,1.38,0,0,1,1.17.46A1.87,1.87,0,0,1,42,82.05c0,.09,0,.2,0,.33a2.83,2.83,0,0,1,0,.33Z"/>
      <path id="_Compound_Path_15" data-name="&lt;Compound Path&gt;" class="cls-2" d="M48,95.58q-.41.81-.79,1.5a5.8,5.8,0,0,1-.85,1.19,3.37,3.37,0,0,1-1.08.77,3.55,3.55,0,0,1-1.45.27,4.52,4.52,0,0,1-.73-.07,3.17,3.17,0,0,1-.77-.23,1.75,1.75,0,0,1-.62-.46A1.11,1.11,0,0,1,41.79,97l.35-.35a1.74,1.74,0,0,0,.76.64,2.36,2.36,0,0,0,.89.18,1.55,1.55,0,0,0,1.26-.62,11.15,11.15,0,0,0,1.18-2l.71-1.46h-.46L44.34,80.67a3.36,3.36,0,0,1,.58-.19,2.69,2.69,0,0,1,.56-.05,1.1,1.1,0,0,1,1.08.53,4.13,4.13,0,0,1,.38,1.32L48.1,91l4.12-8.89a4.33,4.33,0,0,1,.8-1.23,1.52,1.52,0,0,1,1.13-.42,2.1,2.1,0,0,1,1.08.27Z"/>
      <path id="_Compound_Path_16" data-name="&lt;Compound Path&gt;" class="cls-2" d="M70.68,90.67c0,.11,0,.21,0,.3a2.67,2.67,0,0,0,0,.27,1,1,0,0,0,.16.61.73.73,0,0,0,.6.2A2,2,0,0,0,71.9,92L72.09,93a2.83,2.83,0,0,1-.8.3,3.78,3.78,0,0,1-.83.11A2.36,2.36,0,0,1,69,93a2,2,0,0,1-.65-1.33,5.54,5.54,0,0,1-1.5,1.36,3.73,3.73,0,0,1-2,.54,4,4,0,0,1-1.75-.35,3.24,3.24,0,0,1-1.19-1,4.2,4.2,0,0,1-.69-1.48A7.22,7.22,0,0,1,61,89a10.35,10.35,0,0,1,.49-3.1A9.77,9.77,0,0,1,62.86,83a7.38,7.38,0,0,1,2.22-2A5.63,5.63,0,0,1,68,80.21a6.3,6.3,0,0,1,1.23.12,7.36,7.36,0,0,1,1.15.33,9.4,9.4,0,0,1,1,.43,8.23,8.23,0,0,1,.77.45ZM67.89,82a3.08,3.08,0,0,0-1.75.56,5.26,5.26,0,0,0-1.45,1.5,8.08,8.08,0,0,0-1,2.21,9.62,9.62,0,0,0-.37,2.7q0,2.77,2.2,2.77a2.65,2.65,0,0,0,.94-.19,3.14,3.14,0,0,0,1-.6,4,4,0,0,0,.81-1,4.39,4.39,0,0,0,.49-1.49l1-6a3.26,3.26,0,0,0-.75-.34A3.76,3.76,0,0,0,67.89,82Z"/>
      <path id="_Compound_Path_17" data-name="&lt;Compound Path&gt;" class="cls-2" d="M81.8,93.24,83,85.74q.05-.35.11-.77a6.33,6.33,0,0,0,.05-.8,2.32,2.32,0,0,0-.41-1.38,1.58,1.58,0,0,0-1.38-.57,3.93,3.93,0,0,0-1.19.19,3.66,3.66,0,0,0-1.12.6,3.8,3.8,0,0,0-.91,1,3.88,3.88,0,0,0-.52,1.45l-1.3,7.78h-2.3l2.11-12.77a2.51,2.51,0,0,1,.49-.05,1.26,1.26,0,0,1,1.44,1.41v.3a6.11,6.11,0,0,1,1.73-1.37,4.83,4.83,0,0,1,2.33-.56,3.67,3.67,0,0,1,1.56.3,2.91,2.91,0,0,1,1,.8,3.1,3.1,0,0,1,.58,1.15,5.17,5.17,0,0,1,.18,1.36,9,9,0,0,1-.05,1q-.05.49-.14.95L84.1,93.24Z"/>
      <path id="_Compound_Path_18" data-name="&lt;Compound Path&gt;" class="cls-2" d="M98.17,90.67c0,.11,0,.2,0,.29a2.27,2.27,0,0,0,0,.26,1,1,0,0,0,.16.62.7.7,0,0,0,.6.22,2,2,0,0,0,.52-.08L99.58,93a2.83,2.83,0,0,1-.8.3,3.79,3.79,0,0,1-.83.11A2.36,2.36,0,0,1,96.46,93a2,2,0,0,1-.65-1.33,5,5,0,0,1-1.72,1.4,4.53,4.53,0,0,1-2,.5,4.12,4.12,0,0,1-1.83-.37,3.26,3.26,0,0,1-1.22-1,4.15,4.15,0,0,1-.68-1.54,9,9,0,0,1-.2-2,10.13,10.13,0,0,1,.47-3A9.25,9.25,0,0,1,90,82.93a7.16,7.16,0,0,1,2.17-2,5.63,5.63,0,0,1,2.91-.76,4.24,4.24,0,0,1,1.34.23,4.65,4.65,0,0,1,1.1.5l1.11-6.89a2.5,2.5,0,0,1,.49-.05,1.45,1.45,0,0,1,1.21.43,1.8,1.8,0,0,1,.34,1.14,3.06,3.06,0,0,1,0,.35q0,.22-.05.35ZM95,82a3.21,3.21,0,0,0-1.79.53A5,5,0,0,0,91.81,84a7.46,7.46,0,0,0-.95,2.14,9.67,9.67,0,0,0-.34,2.6A3.8,3.8,0,0,0,91.07,91a2,2,0,0,0,1.76.76,3,3,0,0,0,1-.19,3.32,3.32,0,0,0,1-.6,4.33,4.33,0,0,0,.88-1,3.89,3.89,0,0,0,.53-1.49l.95-5.77a2.84,2.84,0,0,0-.88-.46A4.26,4.26,0,0,0,95,82Z"/>
      <path id="_Compound_Path_19" data-name="&lt;Compound Path&gt;" class="cls-2" d="M117.9,76.14a1.37,1.37,0,0,1,.38.53,1.49,1.49,0,0,1,.11.53,1.29,1.29,0,0,1-.24.72,1.79,1.79,0,0,1-.89.61,3.86,3.86,0,0,0-1.55-1.37,4.75,4.75,0,0,0-2-.39,3.57,3.57,0,0,0-2.36.75,2.35,2.35,0,0,0-.89,1.88,2.69,2.69,0,0,0,.26,1.22,3.49,3.49,0,0,0,.7.95,6,6,0,0,0,1,.8l1.3.8q.84.51,1.53,1a7,7,0,0,1,1.18,1.1,4.31,4.31,0,0,1,.75,1.29,4.73,4.73,0,0,1,.26,1.63,5.56,5.56,0,0,1-.47,2.37,4.89,4.89,0,0,1-1.3,1.71,5.43,5.43,0,0,1-2,1,9.38,9.38,0,0,1-5.14,0,4.63,4.63,0,0,1-1.84-1,2,2,0,0,1-.35-.45,1.06,1.06,0,0,1-.11-.5,1.75,1.75,0,0,1,.89-1.41A6,6,0,0,0,109,91.23a5.54,5.54,0,0,0,2.34.45,3.79,3.79,0,0,0,2.81-.92,3.12,3.12,0,0,0,.91-2.28,3.15,3.15,0,0,0-.24-1.3,3,3,0,0,0-.69-1,7.07,7.07,0,0,0-1-.8q-.6-.38-1.33-.79t-1.4-.91a6.41,6.41,0,0,1-1.15-1,4.48,4.48,0,0,1-.77-1.3,4.7,4.7,0,0,1-.28-1.71,4.46,4.46,0,0,1,.46-2,4.64,4.64,0,0,1,1.26-1.54,5.61,5.61,0,0,1,1.84-1,7.47,7.47,0,0,1,2.24-.33,6.48,6.48,0,0,1,1.44.15,7.6,7.6,0,0,1,1.15.35,4.57,4.57,0,0,1,.84.43A6,6,0,0,1,117.9,76.14Z"/>
      <path id="_Compound_Path_20" data-name="&lt;Compound Path&gt;" class="cls-2" d="M129.18,92.19a5.08,5.08,0,0,1-.6.5,4.41,4.41,0,0,1-.85.47,5.94,5.94,0,0,1-1.18.35,8,8,0,0,1-1.54.13,5.89,5.89,0,0,1-2-.31,4.06,4.06,0,0,1-1.53-.93,4.33,4.33,0,0,1-1-1.6,6.57,6.57,0,0,1-.37-2.3,9.74,9.74,0,0,1,.56-3.35,8.15,8.15,0,0,1,1.52-2.63,7,7,0,0,1,2.22-1.71,6,6,0,0,1,2.67-.61,3.61,3.61,0,0,1,2.62.88,3.05,3.05,0,0,1,.91,2.29,3.75,3.75,0,0,1-.64,2.21,4.93,4.93,0,0,1-1.65,1.48,7.88,7.88,0,0,1-2.25.83,11.84,11.84,0,0,1-2.43.26H123q-.34,0-.64,0v.35a3.53,3.53,0,0,0,.8,2.52,2.73,2.73,0,0,0,2.07.84,4.14,4.14,0,0,0,1.92-.45,4.83,4.83,0,0,0,1.54-1.29l.35.24a1.68,1.68,0,0,1,.42.41.89.89,0,0,1,.15.52A1.37,1.37,0,0,1,129.18,92.19Zm-5.77-5.61a8.75,8.75,0,0,0,2-.22,5.83,5.83,0,0,0,1.6-.61,3.19,3.19,0,0,0,1.06-.95,2.18,2.18,0,0,0,.38-1.26,1.72,1.72,0,0,0-.34-1.07,1.46,1.46,0,0,0-1.23-.45,3.38,3.38,0,0,0-1.5.34,4.16,4.16,0,0,0-1.25.95,5.56,5.56,0,0,0-.94,1.44,8,8,0,0,0-.57,1.8l.42,0Z"/>
      <path id="_Compound_Path_21" data-name="&lt;Compound Path&gt;" class="cls-2" d="M135,90.67c0,.11,0,.21,0,.3a2.67,2.67,0,0,0,0,.27,1,1,0,0,0,.16.61.73.73,0,0,0,.6.2,2,2,0,0,0,.52-.08l.19,1.06a2.83,2.83,0,0,1-.8.3,3.78,3.78,0,0,1-.83.11,2.18,2.18,0,0,1-1.67-.57,2,2,0,0,1-.5-1.52q0-.13,0-.28c0-.1,0-.2,0-.31l2.77-16.7A2.5,2.5,0,0,1,136,74a1.45,1.45,0,0,1,1.21.43,1.8,1.8,0,0,1,.34,1.14,3.06,3.06,0,0,1,0,.35q0,.22-.05.35Z"/>
      <path id="_Compound_Path_22" data-name="&lt;Compound Path&gt;" class="cls-2" d="M141.24,90.67c0,.11,0,.21,0,.3a2.67,2.67,0,0,0,0,.27,1,1,0,0,0,.16.61.73.73,0,0,0,.6.2,2,2,0,0,0,.52-.08l.19,1.06a2.83,2.83,0,0,1-.8.3,3.78,3.78,0,0,1-.83.11,2.18,2.18,0,0,1-1.67-.57,2,2,0,0,1-.5-1.52q0-.13,0-.28c0-.1,0-.2,0-.31l2.77-16.7a2.5,2.5,0,0,1,.49-.05,1.45,1.45,0,0,1,1.21.43,1.8,1.8,0,0,1,.34,1.14,3.06,3.06,0,0,1,0,.35q0,.22-.05.35Z"/>
      <path id="_Compound_Path_23" data-name="&lt;Compound Path&gt;" class="cls-2" d="M153.57,93.65a5.67,5.67,0,0,1-3.82-1.11,1.09,1.09,0,0,1-.11-1.6l.43-.46a4.9,4.9,0,0,0,1.41,1,4.12,4.12,0,0,0,1.76.37,3.07,3.07,0,0,0,1.17-.19,2.09,2.09,0,0,0,.73-.47,1.59,1.59,0,0,0,.38-.65,2.43,2.43,0,0,0,.11-.69A1.67,1.67,0,0,0,155,88.5a15.38,15.38,0,0,0-1.49-1.08q-.49-.3-1-.65a5.41,5.41,0,0,1-.85-.79,3.62,3.62,0,0,1-.61-1,3.25,3.25,0,0,1-.23-1.27,3.2,3.2,0,0,1,.28-1.31,3.26,3.26,0,0,1,.84-1.12,4.24,4.24,0,0,1,1.4-.79,5.84,5.84,0,0,1,2-.3,4.68,4.68,0,0,1,2.11.45,3.61,3.61,0,0,1,1.3,1,1.08,1.08,0,0,1,.24.65.84.84,0,0,1-.16.52,1.88,1.88,0,0,1-.43.41l-.41.27a3,3,0,0,0-2.77-1.54,2.16,2.16,0,0,0-1.64.51,1.64,1.64,0,0,0-.47,1.14,1.59,1.59,0,0,0,.16.75,2,2,0,0,0,.47.58,7.7,7.7,0,0,0,.73.56l1,.64a11.16,11.16,0,0,1,1.22.92,5.13,5.13,0,0,1,.79.85,2.69,2.69,0,0,1,.42.91,4.48,4.48,0,0,1,.12,1.08,3.69,3.69,0,0,1-.3,1.48,3.32,3.32,0,0,1-.87,1.19,4.28,4.28,0,0,1-1.38.8A5.34,5.34,0,0,1,153.57,93.65Z"/>
      <path id="_Compound_Path_24" data-name="&lt;Compound Path&gt;" class="cls-2" d="M164.71,80.45h3.66L168,82.27h-3.63L163.49,88q-.08.46-.19,1.17a5.89,5.89,0,0,0-.08,1.19,1.85,1.85,0,0,0,.35,1.06,1.3,1.3,0,0,0,1.11.43,1.87,1.87,0,0,0,1-.3,3.33,3.33,0,0,0,.85-.79l.43.41a1,1,0,0,1,.35.79,1.27,1.27,0,0,1-.6,1,3.93,3.93,0,0,1-2.55.73,3.31,3.31,0,0,1-2.51-.87,3.51,3.51,0,0,1-.83-2.52c0-.13,0-.28,0-.46s0-.37.08-.57L163,76.6a2.59,2.59,0,0,1,.49-.05,1.45,1.45,0,0,1,1.21.43,1.8,1.8,0,0,1,.34,1.14,3,3,0,0,1,0,.35c0,.14,0,.26-.05.35Z"/>
      <path id="_Compound_Path_25" data-name="&lt;Compound Path&gt;" class="cls-2" d="M173.63,93.65a4.63,4.63,0,0,1-2.14-.45A4,4,0,0,1,170.08,92a4.83,4.83,0,0,1-.79-1.65,7.39,7.39,0,0,1-.24-1.9,10.51,10.51,0,0,1,.45-3,8.68,8.68,0,0,1,1.3-2.66,6.57,6.57,0,0,1,2.11-1.87,5.82,5.82,0,0,1,2.89-.71,4.58,4.58,0,0,1,2.11.45,4,4,0,0,1,1.41,1.18,4.83,4.83,0,0,1,.79,1.65,7.38,7.38,0,0,1,.24,1.9,11,11,0,0,1-.42,3A8.42,8.42,0,0,1,178.67,91a6.56,6.56,0,0,1-2.1,1.88A5.84,5.84,0,0,1,173.63,93.65Zm-2.25-5.15a5.92,5.92,0,0,0,.14,1.29,3,3,0,0,0,.45,1.06,2.44,2.44,0,0,0,.77.72,2.15,2.15,0,0,0,1.11.27,3,3,0,0,0,1.69-.5A4.33,4.33,0,0,0,176.86,90a7.43,7.43,0,0,0,.85-2,10,10,0,0,0,.31-2.56,5.43,5.43,0,0,0-.15-1.29,3.31,3.31,0,0,0-.45-1.06,2.28,2.28,0,0,0-.77-.72,2.24,2.24,0,0,0-1.12-.27,3,3,0,0,0-1.68.5,4.55,4.55,0,0,0-1.31,1.37,6.89,6.89,0,0,0-.85,2A10.41,10.41,0,0,0,171.38,88.5Z"/>
      <path id="_Compound_Path_26" data-name="&lt;Compound Path&gt;" class="cls-2" d="M191.2,90.4a1.66,1.66,0,0,1,.42.41.9.9,0,0,1,.15.51,1.48,1.48,0,0,1-.46.92,5,5,0,0,1-3.77,1.41,5.69,5.69,0,0,1-1.91-.31,4.11,4.11,0,0,1-1.53-.95,4.37,4.37,0,0,1-1-1.61,6.56,6.56,0,0,1-.37-2.3,10,10,0,0,1,.54-3.35,8.11,8.11,0,0,1,1.48-2.62,6.92,6.92,0,0,1,2.16-1.69,5.73,5.73,0,0,1,2.6-.61,4.45,4.45,0,0,1,2.16.43,4,4,0,0,1,1.23,1,1.1,1.1,0,0,1,.2.38,1.31,1.31,0,0,1,.07.38,1,1,0,0,1-.22.69,2.39,2.39,0,0,1-.54.42l-.43.24a2.58,2.58,0,0,0-1-1.33,3.07,3.07,0,0,0-1.65-.41,3,3,0,0,0-1.64.5,4.79,4.79,0,0,0-1.36,1.37,7.24,7.24,0,0,0-.92,2,8.9,8.9,0,0,0-.34,2.49,3.77,3.77,0,0,0,.75,2.51,2.51,2.51,0,0,0,2,.88,3.73,3.73,0,0,0,3-1.68Z"/>
      <path id="_Compound_Path_27" data-name="&lt;Compound Path&gt;" class="cls-2" d="M196.43,93.24h-2.3l3.2-19.19a2.51,2.51,0,0,1,.49-.05,1.41,1.41,0,0,1,1.19.43,1.85,1.85,0,0,1,.33,1.14,2.87,2.87,0,0,1,0,.35c0,.14,0,.26-.05.35Zm6.94-2.33a7,7,0,0,0,.62.87.75.75,0,0,0,.57.27h.26a1,1,0,0,0,.28-.07l.19,1.06a2.85,2.85,0,0,1-.8.3,4,4,0,0,1-.88.11,2.21,2.21,0,0,1-1.23-.3,3,3,0,0,1-.85-1l-3.44-5.56.16-.81,4.58-4.34a4.45,4.45,0,0,1,.87-.65,2.06,2.06,0,0,1,1-.24,1.21,1.21,0,0,1,.89.35l.3.3-5.42,5Z"/>
      <path id="_Compound_Path_28" data-name="&lt;Compound Path&gt;" class="cls-2" d="M219.58,93.24l1.25-7.51q.05-.35.11-.77a6.24,6.24,0,0,0,.05-.8,2.31,2.31,0,0,0-.41-1.38,1.58,1.58,0,0,0-1.38-.57,3.92,3.92,0,0,0-1.19.19,3.64,3.64,0,0,0-1.12.6,3.8,3.8,0,0,0-.91,1,3.88,3.88,0,0,0-.52,1.45l-1.3,7.78h-2.3L214,80.48a2.51,2.51,0,0,1,.49-.05,1.26,1.26,0,0,1,1.44,1.41v.3a6.1,6.1,0,0,1,1.73-1.37,4.83,4.83,0,0,1,2.33-.56,3.67,3.67,0,0,1,1.56.3,2.92,2.92,0,0,1,1,.8,3.1,3.1,0,0,1,.58,1.15,5.13,5.13,0,0,1,.18,1.36,8.83,8.83,0,0,1-.05,1q-.05.49-.13.95l-1.25,7.51Z"/>
      <path id="_Compound_Path_29" data-name="&lt;Compound Path&gt;" class="cls-2" d="M235.62,90.67c0,.11,0,.21,0,.3a2.54,2.54,0,0,0,0,.27,1,1,0,0,0,.16.61.73.73,0,0,0,.6.2,2,2,0,0,0,.51-.08L237,93a2.84,2.84,0,0,1-.8.3,3.79,3.79,0,0,1-.83.11,2.36,2.36,0,0,1-1.49-.41,2,2,0,0,1-.65-1.33,5.53,5.53,0,0,1-1.5,1.36,3.73,3.73,0,0,1-2,.54,3.94,3.94,0,0,1-1.75-.35,3.24,3.24,0,0,1-1.19-1,4.2,4.2,0,0,1-.69-1.48,7.25,7.25,0,0,1-.22-1.82,10.35,10.35,0,0,1,.49-3.1A9.77,9.77,0,0,1,227.8,83,7.39,7.39,0,0,1,230,81a5.63,5.63,0,0,1,2.94-.79,6.29,6.29,0,0,1,1.23.12,7.41,7.41,0,0,1,1.15.33,9.44,9.44,0,0,1,1,.43,8.23,8.23,0,0,1,.77.45ZM232.83,82a3.08,3.08,0,0,0-1.75.56,5.25,5.25,0,0,0-1.45,1.5,8.09,8.09,0,0,0-1,2.21,9.62,9.62,0,0,0-.37,2.7q0,2.77,2.2,2.77a2.65,2.65,0,0,0,.94-.19,3.13,3.13,0,0,0,1-.6,4,4,0,0,0,.81-1,4.41,4.41,0,0,0,.49-1.49l1-6a3.26,3.26,0,0,0-.75-.34A3.76,3.76,0,0,0,232.83,82Z"/>
      <path id="_Compound_Path_30" data-name="&lt;Compound Path&gt;" class="cls-2" d="M243.27,80.45h3.66l-.33,1.82H243L242,88q-.08.46-.19,1.17a5.85,5.85,0,0,0-.08,1.19,1.85,1.85,0,0,0,.35,1.06,1.3,1.3,0,0,0,1.11.43,1.87,1.87,0,0,0,1-.3,3.33,3.33,0,0,0,.85-.79l.43.41a1,1,0,0,1,.35.79,1.27,1.27,0,0,1-.6,1,3.92,3.92,0,0,1-2.55.73,3.31,3.31,0,0,1-2.51-.87,3.51,3.51,0,0,1-.83-2.52,4.61,4.61,0,0,1,0-.46q0-.27.08-.57l2.06-12.63a2.57,2.57,0,0,1,.49-.05,1.45,1.45,0,0,1,1.21.43,1.79,1.79,0,0,1,.34,1.14,3,3,0,0,1,0,.35c0,.14,0,.26-.05.35Z"/>
      <path id="_Compound_Path_31" data-name="&lt;Compound Path&gt;" class="cls-2" d="M252.18,93a2.84,2.84,0,0,1-.8.3,3.79,3.79,0,0,1-.83.11,2.18,2.18,0,0,1-1.67-.57,2,2,0,0,1-.5-1.52c0-.09,0-.18,0-.28s0-.2,0-.31l1.71-10.27a2.51,2.51,0,0,1,.49-.05,1.38,1.38,0,0,1,1.17.46,1.87,1.87,0,0,1,.35,1.17c0,.09,0,.2,0,.33a2.72,2.72,0,0,1,0,.33l-1.33,8c0,.11,0,.21,0,.3a2.54,2.54,0,0,0,0,.27,1,1,0,0,0,.16.61.73.73,0,0,0,.6.2A2,2,0,0,0,252,92Zm-.46-15.18a1.11,1.11,0,0,1-.94-.41,1.51,1.51,0,0,1-.31-.95,1.87,1.87,0,0,1,.42-1.22,1.44,1.44,0,0,1,1.18-.51,1.09,1.09,0,0,1,.93.42,1.57,1.57,0,0,1,.31,1,1.78,1.78,0,0,1-.43,1.21A1.46,1.46,0,0,1,251.72,77.85Z"/>
      <path id="_Compound_Path_32" data-name="&lt;Compound Path&gt;" class="cls-2" d="M259.12,93.65A4.63,4.63,0,0,1,257,93.2,4,4,0,0,1,255.57,92a4.8,4.8,0,0,1-.79-1.65,7.36,7.36,0,0,1-.24-1.9,10.52,10.52,0,0,1,.45-3,8.67,8.67,0,0,1,1.3-2.66,6.57,6.57,0,0,1,2.11-1.87,5.82,5.82,0,0,1,2.89-.71,4.57,4.57,0,0,1,2.11.45,4,4,0,0,1,1.41,1.18,4.84,4.84,0,0,1,.79,1.65,7.4,7.4,0,0,1,.24,1.9,11,11,0,0,1-.42,3A8.41,8.41,0,0,1,264.16,91a6.55,6.55,0,0,1-2.1,1.88A5.84,5.84,0,0,1,259.12,93.65Zm-2.25-5.15a5.89,5.89,0,0,0,.14,1.29,2.94,2.94,0,0,0,.45,1.06,2.43,2.43,0,0,0,.77.72,2.15,2.15,0,0,0,1.11.27,3,3,0,0,0,1.69-.5A4.34,4.34,0,0,0,262.35,90a7.42,7.42,0,0,0,.85-2,10,10,0,0,0,.31-2.56,5.46,5.46,0,0,0-.15-1.29,3.32,3.32,0,0,0-.45-1.06,2.29,2.29,0,0,0-.77-.72A2.24,2.24,0,0,0,261,82a3,3,0,0,0-1.68.5A4.55,4.55,0,0,0,258,83.89a6.9,6.9,0,0,0-.85,2A10.41,10.41,0,0,0,256.87,88.5Z"/>
      <path id="_Compound_Path_33" data-name="&lt;Compound Path&gt;" class="cls-2" d="M275.6,93.24l1.25-7.51q.05-.35.11-.77a6.24,6.24,0,0,0,.05-.8,2.31,2.31,0,0,0-.41-1.38,1.58,1.58,0,0,0-1.38-.57,3.92,3.92,0,0,0-1.19.19,3.64,3.64,0,0,0-1.12.6,3.8,3.8,0,0,0-.91,1,3.88,3.88,0,0,0-.52,1.45l-1.3,7.78h-2.3L270,80.48a2.51,2.51,0,0,1,.49-.05,1.26,1.26,0,0,1,1.44,1.41v.3a6.1,6.1,0,0,1,1.73-1.37,4.83,4.83,0,0,1,2.33-.56,3.67,3.67,0,0,1,1.56.3,2.92,2.92,0,0,1,1,.8,3.1,3.1,0,0,1,.58,1.15,5.13,5.13,0,0,1,.18,1.36,8.83,8.83,0,0,1-.05,1q-.05.49-.13.95l-1.25,7.51Z"/>
      <path id="_Compound_Path_34" data-name="&lt;Compound Path&gt;" class="cls-2" d="M291.65,90.67c0,.11,0,.21,0,.3a2.54,2.54,0,0,0,0,.27,1,1,0,0,0,.16.61.73.73,0,0,0,.6.2,2,2,0,0,0,.51-.08l.19,1.06a2.84,2.84,0,0,1-.8.3,3.79,3.79,0,0,1-.83.11,2.36,2.36,0,0,1-1.49-.41,2,2,0,0,1-.65-1.33,5.53,5.53,0,0,1-1.5,1.36,3.73,3.73,0,0,1-2,.54,3.94,3.94,0,0,1-1.75-.35,3.24,3.24,0,0,1-1.19-1,4.2,4.2,0,0,1-.69-1.48,7.25,7.25,0,0,1-.22-1.82,10.35,10.35,0,0,1,.49-3.1,9.77,9.77,0,0,1,1.4-2.82,7.39,7.39,0,0,1,2.22-2,5.63,5.63,0,0,1,2.94-.79,6.29,6.29,0,0,1,1.23.12,7.41,7.41,0,0,1,1.15.33,9.44,9.44,0,0,1,1,.43,8.23,8.23,0,0,1,.77.45ZM288.86,82a3.08,3.08,0,0,0-1.75.56,5.25,5.25,0,0,0-1.45,1.5,8.09,8.09,0,0,0-1,2.21,9.62,9.62,0,0,0-.37,2.7q0,2.77,2.2,2.77a2.65,2.65,0,0,0,.94-.19,3.13,3.13,0,0,0,1-.6,4,4,0,0,0,.81-1,4.41,4.41,0,0,0,.49-1.49l1-6a3.26,3.26,0,0,0-.75-.34A3.76,3.76,0,0,0,288.86,82Z"/>
      <path id="_Compound_Path_35" data-name="&lt;Compound Path&gt;" class="cls-2" d="M297.78,90.67c0,.11,0,.21,0,.3a2.54,2.54,0,0,0,0,.27,1,1,0,0,0,.16.61.73.73,0,0,0,.6.2A2,2,0,0,0,299,92l.19,1.06a2.84,2.84,0,0,1-.8.3,3.79,3.79,0,0,1-.83.11,2.18,2.18,0,0,1-1.67-.57,2,2,0,0,1-.5-1.52c0-.09,0-.18,0-.28s0-.2,0-.31l2.76-16.7a2.51,2.51,0,0,1,.49-.05,1.45,1.45,0,0,1,1.21.43,1.8,1.8,0,0,1,.34,1.14,2.87,2.87,0,0,1,0,.35c0,.14,0,.26-.05.35Z"/>
      <path id="_Compound_Path_36" data-name="&lt;Compound Path&gt;" class="cls-2" d="M304,90.67c0,.11,0,.21,0,.3a2.54,2.54,0,0,0,0,.27,1,1,0,0,0,.16.61.73.73,0,0,0,.6.2,2,2,0,0,0,.51-.08l.19,1.06a2.84,2.84,0,0,1-.8.3,3.79,3.79,0,0,1-.83.11,2.18,2.18,0,0,1-1.67-.57,2,2,0,0,1-.5-1.52c0-.09,0-.18,0-.28s0-.2,0-.31l2.76-16.7a2.51,2.51,0,0,1,.49-.05,1.45,1.45,0,0,1,1.21.43,1.8,1.8,0,0,1,.34,1.14,2.87,2.87,0,0,1,0,.35c0,.14,0,.26-.05.35Z"/>
      <path id="_Compound_Path_37" data-name="&lt;Compound Path&gt;" class="cls-2" d="M311.54,95.58q-.41.81-.79,1.5a5.82,5.82,0,0,1-.85,1.19,3.37,3.37,0,0,1-1.08.77,3.56,3.56,0,0,1-1.45.27,4.52,4.52,0,0,1-.73-.07,3.18,3.18,0,0,1-.77-.23,1.75,1.75,0,0,1-.62-.46,1.1,1.1,0,0,1,.12-1.54l.35-.35a1.74,1.74,0,0,0,.76.64,2.36,2.36,0,0,0,.89.18,1.55,1.55,0,0,0,1.26-.62,11.2,11.2,0,0,0,1.18-2l.7-1.46h-.46l-2.14-12.69a3.35,3.35,0,0,1,.58-.19,2.7,2.7,0,0,1,.56-.05,1.1,1.1,0,0,1,1.08.53,4.15,4.15,0,0,1,.38,1.32l1.17,8.7,4.12-8.89a4.34,4.34,0,0,1,.8-1.23,1.52,1.52,0,0,1,1.13-.42,2.1,2.1,0,0,1,1.08.27Z"/>
    </g>
    <g id="_Group_3" data-name="&lt;Group&gt;">
      <path id="_Path_" data-name="&lt;Path&gt;" class="cls-3" d="M0,15.55l9.59-1.84L11,22.59l-.92.15A8.8,8.8,0,0,1,0,15.55Z"/>
      <path id="_Path_2" data-name="&lt;Path&gt;" class="cls-4" d="M42.81,23.74c.09-2.48-1.32-3.88-7.63-4.09V10.28c2.68.11,6.11.51,9.67,1l.56-3.4A9.42,9.42,0,0,1,56,.09h0L53.89,12.77c5.41,1,9.59,1.84,9.59,1.84h0a8.8,8.8,0,0,1-10.12,7.19l-.92-.15-1.57,9.61-9.08-1.89C41.95,28.42,42.69,25.27,42.81,23.74Z"/>
      <path id="_Path_3" data-name="&lt;Path&gt;" class="cls-3" d="M21.35,7.9l.58,3.51c3.57-.53,7.08-1,9.87-1.11v9.34c-9.85.34-7.74,4-6.82,9.73.85,5.32,3.76,9.76,8.41,9.76,3.65,0,6.2-2.74,7.56-6.5l9.42,2c0,.17-.08.34-.12.51l-.18.63a17.33,17.33,0,0,1-33.21,0A26.25,26.25,0,0,1,16,32L10.78.09A9.42,9.42,0,0,1,21.35,7.9Z"/>
    </g>
  </g>
</svg>
