<svg id="Layer_1" data-name="Layer 1" xmlns="http://www.w3.org/2000/svg" viewBox="0 0 98.7 98.7">
  <defs>
    <style>
      .cls-1 {
        fill: #999965;
      }

      .cls-2 {
        fill: #fff;
      }
    </style>
  </defs>
  <title>bull-icon</title>
  <circle class="cls-1" cx="49.35" cy="49.35" r="49.35"/>
  <g>
    <path class="cls-2" d="M55,58.41a7.68,7.68,0,0,0-6.22,3.3,7.68,7.68,0,0,0-6.22-3.3c-4.36,0-7.9,3.85-7.9,8.6s3.54,8.6,7.9,8.6a7.68,7.68,0,0,0,6.22-3.3A7.68,7.68,0,0,0,55,75.61c4.36,0,7.9-3.85,7.9-8.6S59.38,58.41,55,58.41Z"/>
    <path class="cls-2" d="M68.25,23.08c0,.14,0,.27,0,.41,0,5.33-4,9.64-8.86,9.64A9,9,0,0,1,51,26.48a14.08,14.08,0,0,0-.44,3.5,14.34,14.34,0,0,0,.08,1.5,10.94,10.94,0,0,0-3.83,0,14.34,14.34,0,0,0,.08-1.5,14,14,0,0,0-.59-4,9,9,0,0,1-8.57,7.21c-4.85,0-8.78-4.24-8.85-9.5A13.58,13.58,0,0,0,27.35,30c0,6.52,4.37,11.8,9.77,11.8.26,0,.51,0,.77,0,0,.07,0,.14,0,.21a10.84,10.84,0,0,0,21.68,0c0-.07,0-.14,0-.21.25,0,.51,0,.77,0,5.4,0,9.77-5.28,9.77-11.8A13.46,13.46,0,0,0,68.25,23.08Z"/>
    <path class="cls-2" d="M33.91,47.76s-4.4-6.65-6.48-6.65H15.78s-1.84,1.07-2.07,2a5.84,5.84,0,0,0,.78,3.32c1.94,3.26,4.92,8.64,10.36,9,1.68.1,7,.33,7,.33"/>
    <path class="cls-2" d="M64,47.23s4.58-6.65,6.74-6.65H82.83s1.91,1.07,2.16,2a5.66,5.66,0,0,1-.81,3.32c-2,3.26-5.12,8.64-10.78,9-1.75.1-7.28.33-7.28.33"/>
  </g>
</svg>
