<svg id="Layer_1" data-name="Layer 1" xmlns="http://www.w3.org/2000/svg" viewBox="0 0 98.7 98.7">
  <defs>
    <style>
      .cls-1 {
        fill: #999965;
      }

      .cls-2, .cls-3, .cls-4 {
        fill: none;
        stroke: #fff;
      }

      .cls-2, .cls-3 {
        stroke-linejoin: round;
      }

      .cls-2, .cls-4 {
        stroke-width: 3px;
      }

      .cls-3, .cls-4 {
        stroke-linecap: round;
      }

      .cls-3 {
        stroke-width: 4px;
      }

      .cls-4 {
        stroke-miterlimit: 10;
      }
    </style>
  </defs>
  <title>Artboard 1100</title>
  <circle class="cls-1" cx="49.35" cy="49.35" r="49.35"/>
  <g>
    <path class="cls-2" d="M55.55,58.44a8.62,8.62,0,0,0-6.8,3.32,8.64,8.64,0,1,0,0,10.64,8.63,8.63,0,1,0,6.8-14Z"/>
    <path class="cls-3" d="M70,23c0,.14,0,.27,0,.41a9.68,9.68,0,0,1-18.88,3,13,13,0,0,0-.48,3.51,13.23,13.23,0,0,0,.09,1.5,13,13,0,0,0-4.18,0,13.23,13.23,0,0,0,.09-1.5A13,13,0,0,0,46,25.84a9.68,9.68,0,0,1-19-2.3,12.74,12.74,0,0,0-1.67,6.36c0,6.54,4.78,11.85,10.68,11.85.28,0,.56,0,.84,0,0,.07,0,.14,0,.21,0,5.9,5.3,10.68,11.85,10.68s11.85-4.78,11.85-10.68c0-.07,0-.14,0-.21.28,0,.56,0,.84,0,5.9,0,10.68-5.3,10.68-11.85A12.68,12.68,0,0,0,70,23Z"/>
    <path class="cls-4" d="M31,47.76s-4.81-6.67-7.08-6.67H11.16s-2,1.08-2.27,2a5.48,5.48,0,0,0,.85,3.34c2.13,3.27,5.38,8.68,11.33,9,1.84.1,7.64.33,7.64.33"/>
    <path class="cls-4" d="M66.82,47.23s5-6.67,7.37-6.67H87.44s2.09,1.08,2.36,2a5.32,5.32,0,0,1-.88,3.34c-2.21,3.27-5.6,8.68-11.79,9-1.91.1-8,.33-8,.33"/>
  </g>
</svg>
