<svg id="Layer_1" data-name="Layer 1" xmlns="http://www.w3.org/2000/svg" viewBox="0 0 252.41 50">
  <defs>
    <style>
      .cls-1 {
        fill: #3e3e40;
      }

      .cls-2 {
        fill: #999;
      }
    </style>
  </defs>
  <title>Artboard 1100</title>
  <g>
    <g>
      <g>
        <path class="cls-1" d="M.17,28.42H.46c2.82,0,3.37-1.21,3.37-4.58v-19C3.83,2.46,3,1.54.93,1.54H.34V.29c2,.12,3.5.17,4.46.17,2,0,4-.25,5.85-.25,6.57,0,9.85,2.41,9.85,7.07,0,2.75-1.85,5.12-5.39,6.57,4.42,1,6.78,3.75,6.78,7.66,0,4.79-3.83,8.36-10.11,8.36-2.19,0-4.59-.37-7.2-.37-.76,0-2.23,0-4.42.17Zm9.94-15c4.84,0,6.82-1.5,6.82-5.33,0-4-2.57-6.41-7-6.41-2.4,0-2.61.67-2.61,2.25v9.32C8.55,13.36,9.43,13.44,10.11,13.44ZM7.33,23.8c0,3.25.55,4.58,4.51,4.58,4.13,0,6.44-2.16,6.44-6.24,0-4.33-3-7.07-8.59-7.07-.25,0-1,0-2.36.12Z"/>
        <path class="cls-1" d="M11.79,30c-1.05,0-2.14-.09-3.3-.18s-2.55-.2-3.9-.2c-.45,0-1.78,0-4.41.17H0V28.25H.46c2.72,0,3.2-1.16,3.2-4.41v-19c0-2.27-.74-3.12-2.74-3.12H.17V.11H.35C2.57.26,4,.29,4.8.29c1,0,2-.06,3-.13S9.72,0,10.65,0c6.65,0,10,2.44,10,7.24,0,2.75-1.78,5.06-5,6.53,4.14,1.06,6.42,3.78,6.42,7.7C22.07,26.62,17.94,30,11.79,30Zm-7.2-.71c1.37,0,2.67.1,3.93.2s2.23.17,3.27.17c5.95,0,9.94-3.29,9.94-8.2,0-3.9-2.36-6.56-6.65-7.49l-.53-.11.5-.21c3.41-1.4,5.29-3.68,5.29-6.42,0-4.58-3.26-6.91-9.69-6.91C9.73.38,8.81.44,7.83.5s-2,.13-3,.13C4,.63,2.63.6.5.47v.9H.93C3.11,1.37,4,2.37,4,4.83v19c0,3.28-.51,4.75-3.54,4.75H.34v.9C2.86,29.35,4.15,29.34,4.59,29.34Zm7.24-.79c-4,0-4.67-1.4-4.67-4.75V15h.16c1.44-.09,2.13-.13,2.37-.13,5.48,0,8.76,2.71,8.76,7.24C18.44,26.27,16.1,28.55,11.83,28.55ZM7.49,15.35V23.8c0,3.07.41,4.41,4.34,4.41s6.28-2.16,6.28-6.07c0-4.39-3.07-6.91-8.42-6.91C9.46,15.23,8.82,15.27,7.49,15.35Zm2.61-1.74c-.5,0-1.11,0-1.88-.1l-.91-.07H7.16V4c0-1.64.27-2.41,2.78-2.41,4.48,0,7.16,2.46,7.16,6.58C17.1,12,15.07,13.61,10.11,13.61Zm-2.61-.49.76.05c.76.06,1.37.1,1.86.1,4.79,0,6.65-1.45,6.65-5.16,0-3.91-2.55-6.24-6.82-6.24-2.34,0-2.44.64-2.44,2.08Z"/>
      </g>
      <g>
        <path class="cls-1" d="M39.3,1.54h-.59V.29c2.15.08,3.92.17,5.31.17S47.13.38,49.28.29V1.54c-3.16,0-3.45,1.25-3.45,5.2V19.52c0,5.74,3.45,9.11,8.55,9.11,5.81,0,9.64-4,9.64-11.24v-5.7C64,4,64,1.54,60.48,1.54V.29c1.68.08,3.07.17,4.21.17S67.22.38,68.94.29V1.54C66.29,1.87,66,3,66,6.08v7.61c0,4.87,0,8.66-2.19,11.82A11.66,11.66,0,0,1,54,30.34C46.92,30.34,42.2,25.84,42.2,18V4.83C42.2,2.46,41.4,1.54,39.3,1.54Z"/>
        <path class="cls-1" d="M54,30.5c-7.38,0-12-4.8-12-12.53V4.83c0-2.27-.74-3.12-2.74-3.12h-.76V.12l1.31.05c1.63.06,3,.12,4.16.12s2.47-.05,4-.12L49.44.12V1.71h-.17c-3,0-3.29,1-3.29,5V19.52c0,5.52,3.21,8.95,8.38,8.95,5.93,0,9.48-4.14,9.48-11.07v-5.7c0-7.67,0-10-3.37-10h-.17V.12l1,.05c1.29.07,2.41.12,3.34.12s2-.06,3.34-.12L69.11.12V1.69l-.15,0C66.42,2,66.21,3,66.21,6.08v7.61c0,4.87,0,8.71-2.22,11.91A11.9,11.9,0,0,1,54,30.5ZM38.87,1.37h.42c2.18,0,3.07,1,3.07,3.46V18c0,7.52,4.45,12.19,11.62,12.19a11.42,11.42,0,0,0,9.72-4.76c2.16-3.12,2.16-6.92,2.16-11.72V6.08c0-3.08.25-4.31,2.91-4.68V.47L68,.51c-1.32.07-2.45.12-3.35.12S62.63.57,61.33.5l-.69,0v.91c3.54.08,3.54,2.72,3.54,10.32v5.7c0,7.14-3.67,11.4-9.81,11.4-5.3,0-8.72-3.64-8.72-9.28V6.74c0-3.91.29-5.32,3.45-5.37V.47l-1,0C46.49.57,45.13.63,44,.63S41.47.57,39.84.51l-1,0Z"/>
      </g>
      <g>
        <path class="cls-1" d="M85.75,28.42h.13c2.61,0,3.37-1.08,3.37-4.24V4.83c0-2.37-.8-3.29-2.91-3.29h-.59V.29c3,.12,5.77.17,8.34.17,2.4,0,6.23,0,11.41-.17,0,2.12.08,4.41.21,6.87h-1.14c-.17-4.66-2.74-5.08-9.22-5.08H92.83V13.44c1.05,0,2,0,2.82,0,4.34,0,6.06-.37,6.06-2.87v-.46h1.22c0,1.58-.08,2.91-.08,4s0,2.46.08,4h-1.18c-.08-2.91-1.39-3.29-5.05-3.29H92.83v9c0,3.25.29,4.54,3.07,4.54h.42v1.25Q93,29.55,91,29.55c-1.31,0-3.07,0-5.26.12Z"/>
        <path class="cls-1" d="M85.58,29.85V28.25h.29c2.45,0,3.2-1,3.2-4.08V4.83c0-2.27-.74-3.12-2.74-3.12h-.76V.12h.17c2.68.11,5.41.17,8.33.17,1.68,0,5.4,0,11.41-.17h.17V.29c0,1.89.07,4.07.21,6.86v.18h-1.48V7.17c-.16-4.49-2.61-4.92-9.06-4.92H93v11l1.4,0,1.25,0c4.42,0,5.9-.39,5.9-2.7V10h1.56l0,.92c0,1.25-.06,2.34-.06,3.24s0,2.06.07,3.37l0,.83h-1.51v-.16c-.08-2.71-1.17-3.12-4.89-3.12H93v8.82c0,3.17.25,4.37,2.91,4.37h.59v1.59h-.17c-2.22-.08-4-.12-5.3-.12s-3.08,0-5.26.12ZM91,29.38c1.27,0,3,0,5.14.12v-.91H95.9c-2.94,0-3.24-1.43-3.24-4.7V14.73h4c3.5,0,5.07.31,5.22,3.29h.85v-.49c0-1.32-.07-2.45-.07-3.38s0-2,.06-3.25l0-.58h-.88v.29c0,2.62-1.84,3-6.23,3l-1.26,0-1.56,0h-.17V1.91h2.69c6.46,0,9.16.46,9.38,5.08h.8c-.13-2.63-.2-4.71-.2-6.53-5.91.14-9.58.16-11.25.16-2.87,0-5.54-.05-8.17-.16v.91h.42c2.18,0,3.07,1,3.07,3.46V24.18c0,3.28-.88,4.4-3.5,4.41v.91C88,29.42,89.74,29.38,91,29.38Z"/>
      </g>
      <g>
        <path class="cls-1" d="M122.48,28.42h.13c2.61,0,3.37-1.08,3.37-4.24V4.83c0-2.37-.8-3.29-2.91-3.29h-.59V.29c3,.12,5.77.17,8.34.17,2.4,0,6.23,0,11.41-.17,0,2.12.08,4.41.21,6.87H141.3c-.17-4.66-2.74-5.08-9.22-5.08h-2.53V13.44c1.05,0,2,0,2.82,0,4.34,0,6.06-.37,6.06-2.87v-.46h1.22c0,1.58-.08,2.91-.08,4s0,2.46.08,4h-1.18c-.08-2.91-1.39-3.29-5.05-3.29h-3.87v9c0,3.25.29,4.54,3.07,4.54h.42v1.25q-3.35-.12-5.31-.12c-1.31,0-3.07,0-5.26.12Z"/>
        <path class="cls-1" d="M122.31,29.85V28.25h.29c2.45,0,3.2-1,3.2-4.08V4.83c0-2.27-.74-3.12-2.74-3.12h-.76V.12h.17c2.68.11,5.41.17,8.33.17,1.68,0,5.4,0,11.41-.17h.17V.29c0,1.89.07,4.07.21,6.86v.18h-1.48V7.17c-.16-4.49-2.61-4.92-9.06-4.92h-2.36v11l1.4,0,1.25,0c4.42,0,5.9-.39,5.9-2.7V10h1.56l0,.92c0,1.25-.06,2.34-.06,3.24s0,2.06.07,3.37l0,.83h-1.51v-.16c-.08-2.71-1.17-3.12-4.89-3.12h-3.71v8.82c0,3.17.25,4.37,2.91,4.37h.59v1.59H133c-2.22-.08-4-.12-5.3-.12s-3.08,0-5.26.12Zm5.43-.47c1.27,0,3,0,5.14.12v-.91h-.25c-2.94,0-3.24-1.43-3.24-4.7V14.73h4c3.5,0,5.08.31,5.22,3.29h.85v-.49c0-1.32-.07-2.45-.07-3.38s0-2,.06-3.25l0-.58h-.88v.29c0,2.62-1.84,3-6.23,3l-1.26,0-1.56,0h-.17V1.91h2.69c6.46,0,9.16.46,9.38,5.08h.8c-.13-2.63-.2-4.71-.2-6.53-5.91.14-9.58.16-11.25.16-2.87,0-5.54-.05-8.17-.16v.91h.42c2.18,0,3.07,1,3.07,3.46V24.18c0,3.28-.88,4.4-3.5,4.41v.91C124.75,29.42,126.46,29.38,127.74,29.38Z"/>
      </g>
      <g>
        <path class="cls-1" d="M158.66,28.42h.25c2.44,0,3.24-1.12,3.24-4.24V4.83c0-2.37-.8-3.29-2.91-3.29h-.59V.29c2.15.08,4,.17,5.35.17s3.16-.08,5.31-.17V1.54c-3.16,0-3.45,1.25-3.45,5.2V23.89c0,3.25.25,4.54,3,4.54h.42v1.25c-2.36-.08-4.17-.12-5.39-.12s-2.91,0-5.26.12Z"/>
        <path class="cls-1" d="M169.48,29.84h-.17c-2.35-.08-4.16-.12-5.38-.12s-2.88,0-5.26.12h-.17V28.25h.42c2.33,0,3.07-1,3.07-4.08V4.83c0-2.27-.74-3.12-2.74-3.12h-.76V.12l1.23,0c1.68.07,3.14.12,4.29.12s2.54-.06,4.16-.12l1.31-.05V1.71h-.17c-3,0-3.29,1-3.29,5V23.89c0,3.24.23,4.37,2.86,4.37h.59Zm-5.56-.47c1.2,0,3,0,5.22.12v-.91h-.25c-2.91,0-3.2-1.36-3.2-4.7V6.74c0-3.91.29-5.32,3.45-5.37V.47l-1,0c-1.63.07-3,.12-4.18.12S161.39.57,159.7.5l-.88,0v.91h.42c2.18,0,3.07,1,3.07,3.46V24.18c0,3.26-.89,4.41-3.41,4.41h-.08v.91C161.12,29.42,162.79,29.38,163.92,29.38Z"/>
      </g>
      <g>
        <path class="cls-1" d="M187,28.42h.13c2.61,0,3.37-1.08,3.37-4.24V4.83c0-2.37-.8-3.29-2.91-3.29H187V.29c3,.12,5.77.17,8.34.17s6.23,0,11.41-.17v.79C206.8,3,207,5,207,7.16h-1.14c-.17-4.66-2.74-5.08-9.22-5.08h-2.53V13.44c1,0,1.89,0,2.74,0,4.21,0,6-.42,6-2.83,0-.17,0-.33,0-.5H204c0,1.58-.08,2.83-.08,3.75,0,1.08,0,2.41.08,4H202.8c0-2.66-1.39-3-5-3h-3.66V24c0,3.54.42,3.91,4.84,3.91,5.94,0,8.09-.5,9.1-5.62h1.09c-.17,2.66-.67,5.08-.76,7.37q-8.15-.12-12-.12c-2.91,0-6,0-9.35.17Z"/>
        <path class="cls-1" d="M186.88,29.85V28.25h.29c2.45,0,3.2-1,3.2-4.08V4.83c0-2.27-.74-3.12-2.74-3.12h-.76V.12h.17c2.68.11,5.41.17,8.33.17,2.05,0,5.7,0,11.41-.17H207v1c0,.89,0,1.81.1,2.78s.11,2.14.11,3.29v.17h-1.47V7.17c-.16-4.49-2.61-4.92-9.06-4.92h-2.36v11l1.33,0,1.24,0c4.1,0,5.81-.37,5.81-2.66a1.85,1.85,0,0,0,0-.23,2.15,2.15,0,0,1,0-.27V10h1.56l0,1.15c0,1.14-.06,2-.06,2.76,0,.91,0,2,.06,3.27l0,.9h-1.56V17.9c0-2.46-1.13-2.83-4.84-2.83h-3.5V24c0,3.46.35,3.74,4.68,3.74,5.81,0,7.94-.45,8.93-5.48l0-.14h1.41v.18c-.08,1.28-.24,2.49-.39,3.66s-.32,2.51-.37,3.7v.16h-.16c-5.41-.08-9.44-.12-12-.12-3.3,0-6.36.05-9.34.17Zm.34-1.25v.91c2.93-.11,5.94-.16,9.18-.16,2.53,0,6.52,0,11.84.12.05-1.15.2-2.32.36-3.56s.29-2.26.38-3.46h-.78C207.15,27.56,204.81,28,199,28c-4.5,0-5-.42-5-4.08V14.73h3.83c3.5,0,5.07.29,5.17,3h.89l0-.55c0-1.27-.06-2.36-.06-3.28,0-.72,0-1.63.06-2.77l0-.8H203v.06a2.15,2.15,0,0,1,0,.27c0,2.56-1.9,3-6.15,3l-1.25,0-1.49,0H194V1.91h2.69c6.46,0,9.16.46,9.38,5.08h.81c0-1.08-.06-2.11-.11-3.11s-.1-1.9-.1-2.8V.46c-5.61.13-9.21.16-11.25.16-2.87,0-5.54-.05-8.17-.16v.91h.42c2.18,0,3.07,1,3.07,3.46V24.18C190.71,27.46,189.83,28.58,187.22,28.59Z"/>
      </g>
      <g>
        <path class="cls-1" d="M245.17,23.3c2,3.54,3.16,5.58,7.08,5.66v.92c-.88.08-1.64.12-2.36.12-3.75,0-5.43-1.29-7.54-4.74l-3.87-6.33c-.8-1.33-1.26-2.21-1.81-2.46a17.53,17.53,0,0,0-3.41-.33v7.74c0,3.25.29,4.54,3.07,4.54h.42v1.25q-3.35-.12-5.31-.12c-1.31,0-3.07,0-5.26.12V28.42h.13c2.61,0,3.37-1.08,3.37-4.24V4.83c0-2.37-.8-3.29-2.91-3.29h-.59V.29c2.06.12,3.58.17,4.51.17,2.57,0,4.8-.29,6.78-.29,6.15,0,9.48,3.08,9.48,7.74,0,4.08-2,6.41-6.27,7.37Zm-8.89-8.66c4.38,0,6.74-2.12,6.74-6.12,0-4.33-2.48-6.91-7.08-6.91-.63,0-1.56,0-2.7.12V14.27A12.36,12.36,0,0,0,236.28,14.65Z"/>
        <path class="cls-1" d="M249.89,30.17c-3.63,0-5.43-1.13-7.68-4.82L238,18.55c-.62-1-1-1.72-1.45-1.91a11.66,11.66,0,0,0-2.47-.26l-.71,0v7.56c0,3.17.25,4.37,2.91,4.37h.59v1.59h-.17c-2.22-.08-4-.12-5.3-.12s-3.08,0-5.26.12H226V28.25h.29c2.45,0,3.2-1,3.2-4.08V4.83c0-2.27-.74-3.12-2.74-3.12H226V.11h.18c2.39.14,3.84.17,4.5.17,1.36,0,2.61-.08,3.82-.16,1-.07,2-.13,3-.13,6,0,9.64,3,9.64,7.91,0,4.09-2,6.47-6.19,7.48l4.4,7.84c1.92,3.42,3.07,5.49,6.93,5.57h.16V30h-.15C251.35,30.13,250.59,30.17,249.89,30.17ZM233.08,16l1.06.07a10.45,10.45,0,0,1,2.59.29c.52.24,1,1,1.6,2l.28.47,3.87,6.32c2.18,3.57,3.91,4.66,7.4,4.66.66,0,1.36,0,2.19-.11v-.6C248.16,29,247,26.87,245,23.39h0l-4.62-8.23.22,0c4.19-.93,6.14-3.22,6.14-7.2,0-4.74-3.48-7.57-9.31-7.57-.92,0-1.9.06-2.94.13-1.21.08-2.47.16-3.84.16-.64,0-2,0-4.34-.16v.9h.42c2.18,0,3.07,1,3.07,3.46V24.18c0,3.28-.88,4.4-3.5,4.41v.91c2.1-.08,3.82-.12,5.1-.12s3,0,5.14.12v-.91h-.25c-2.94,0-3.24-1.43-3.24-4.7Zm3.2-1.15a12.5,12.5,0,0,1-3.07-.38l-.13,0V1.59h.16c1.12-.08,2.06-.13,2.71-.13,4.6,0,7.24,2.58,7.24,7.08C243.19,12.58,240.74,14.82,236.28,14.82Zm-2.86-.67a12.12,12.12,0,0,0,2.86.34c4.3,0,6.57-2.06,6.57-5.95,0-4.28-2.52-6.74-6.91-6.74-.61,0-1.48,0-2.53.11Z"/>
      </g>
    </g>
    <g>
      <g>
        <g>
          <path class="cls-2" d="M37,43.89l1.09,0v.25c-.49,0-.71.18-.71.66v3.7c0,.81.32,1,1.35,1s1.38-.2,1.49-1.14h.24c0,.49,0,1,0,1.49l-3,0-1.46,0v-.25h0c.53,0,.67-.22.67-.86v-3.9c0-.48-.15-.66-.58-.66H36v-.25Z"/>
          <path class="cls-2" d="M35.87,49.87v-.42H36c.47,0,.59-.16.59-.77v-3.9c0-.44-.12-.58-.5-.58h-.2v-.42h.3l.85,0,.83,0h.35v.42h-.08c-.45,0-.62.16-.62.58v3.7c0,.72.23.87,1.27.87s1.31-.21,1.41-1.07V48.2h.4v.11c0,.48,0,1,0,1.47v.08h-.08l-2.06,0h-1l-1,0Zm1.54-.2h1l2,0c0-.45,0-.89,0-1.33h-.08c-.14,1-.6,1.14-1.56,1.14s-1.44-.14-1.44-1v-3.7A.65.65,0,0,1,38,44v-.08h-.17L37,44l-.86,0H36V44h0c.47,0,.66.22.66.75v3.9c0,.59-.11.92-.7.94v.08h.32Z"/>
        </g>
        <g>
          <path class="cls-2" d="M45.46,49.53h.05c.49,0,.66-.23.66-.86v-3.9c0-.48-.16-.66-.59-.66h-.12v-.25l1.08,0,1.07,0v.25c-.64,0-.7.25-.7,1v3.46c0,.65.05.91.61.91h.09v.25l-1.09,0-1.07,0Z"/>
          <path class="cls-2" d="M47.7,49.87h-.09l-1.09,0-1.06,0h-.09v-.42h.14c.39,0,.57-.12.57-.77v-3.9c0-.43-.13-.58-.5-.58h-.2v-.42h.3l.87,0,.84,0h.32v.42h-.08c-.56,0-.61.17-.61,1v3.46c0,.66.05.83.53.83h.17Zm-1.17-.2,1,0v-.08c-.66,0-.7-.38-.7-1V45.16c0-.77.07-1.1.7-1.13v-.08h-.14l-.85,0-.87,0h-.13V44h0c.47,0,.67.22.67.75v3.9c0,.57-.12.93-.71.94v.08Z"/>
        </g>
        <g>
          <path class="cls-2" d="M53.39,44.92c-.22-.52-.43-.77-1-.81v-.25l1.12,0,1.12,0v.25c-.44,0-.66.12-.66.36a.7.7,0,0,0,.07.24l1.74,4.16,1.64-4.08a1.19,1.19,0,0,0,.09-.38c0-.21-.14-.28-.52-.31v-.25l.92,0,.93,0v.25c-.6,0-.72.29-1,.81l-2.22,5h-.2Z"/>
          <path class="cls-2" d="M55.76,50h-.31l0-.05-2.12-5c-.21-.5-.39-.72-.9-.76h-.08v-.42h.09l1.12,0,1.12,0h.09v.42h-.08c-.57,0-.57.2-.57.28a.61.61,0,0,0,.06.21l1.66,4,1.56-3.89a1.11,1.11,0,0,0,.09-.35c0-.11,0-.19-.44-.23h-.08v-.42H57l.92,0,.92,0H59v.42h-.08c-.55,0-.66.25-.88.76Zm-.2-.17h.09l2.19-4.94c.21-.49.36-.82.95-.86v-.08L58,44l-.84,0V44c.28,0,.52.1.52.39a1.24,1.24,0,0,1-.1.41L55.82,49.1,54,44.75a.76.76,0,0,1-.07-.28c0-.35.35-.43.66-.44v-.08l-1,0-1,0V44c.53.06.75.34,1,.86Z"/>
        </g>
        <g>
          <path class="cls-2" d="M63.58,49.53h0c.53,0,.68-.22.68-.86v-3.9c0-.48-.16-.66-.59-.66h-.12v-.25c.61,0,1.17,0,1.69,0s1.26,0,2.31,0V44c0,.38,0,.78,0,1.22h-.23c0-.94-.55-1-1.87-1H65v2.29h.55c.85,0,1.21-.08,1.21-.57,0,0,0-.07,0-.1H67c0,.32,0,.57,0,.75s0,.49,0,.81h-.25c0-.54-.28-.6-1-.6H65v1.83c0,.71.09.79,1,.79,1.2,0,1.64-.1,1.84-1.13h.22c0,.54-.14,1-.15,1.48l-2.43,0c-.59,0-1.22,0-1.89,0Z"/>
          <path class="cls-2" d="M63.5,49.87v-.42h.11c.47,0,.6-.17.6-.77v-3.9c0-.43-.13-.58-.5-.58h-.2v-.42h.09c.54,0,1.09,0,1.68,0,.42,0,1.16,0,2.31,0h.09V44c0,.18,0,.36,0,.56s0,.43,0,.67v.08h-.39v-.08c0-.83-.41-.94-1.78-.94H65.1v2.12h.47c.89,0,1.13-.1,1.13-.49a.33.33,0,0,0,0,0,.47.47,0,0,1,0-.06v-.08h.42v.29c0,.22,0,.41,0,.55s0,.4,0,.65v.24h-.42v-.08c0-.43-.16-.52-.93-.52H65.1v1.74c0,.64,0,.7.9.7,1.17,0,1.56-.08,1.76-1.06V48.2h.38v.09c0,.26,0,.5-.08.74s-.07.5-.07.74v.08H67.9l-2.43,0c-.67,0-1.29,0-1.89,0Zm.17-.26v.08c.57,0,1.17,0,1.81,0l2.35,0c0-.22,0-.44.07-.67s.05-.42.07-.64H67.9c-.22,1-.71,1.13-1.91,1.13-.93,0-1.06-.11-1.06-.87V46.72h.83c.7,0,1.05.06,1.09.6h.08v-.07c0-.25,0-.47,0-.66s0-.33,0-.56v-.11h-.07v0c0,.61-.54.65-1.29.65h-.64V44.14h.6c1.22,0,1.88,0,1.95,1h.07c0-.2,0-.39,0-.57s0-.38,0-.57v-.07c-1.1,0-1.82,0-2.23,0-.57,0-1.09,0-1.6,0V44h0c.47,0,.67.22.67.75v3.9C64.37,49.25,64.25,49.59,63.66,49.61Z"/>
        </g>
        <g>
          <path class="cls-2" d="M73.16,48.27h.24a1.41,1.41,0,0,0,1.45,1.33,1.18,1.18,0,0,0,1.28-1.17c0-.74-.51-1-1.35-1.38-1-.46-1.64-.82-1.64-1.7A1.72,1.72,0,0,1,75,43.74a8.53,8.53,0,0,1,1.49.23v1.4h-.24a1.24,1.24,0,0,0-1.38-1.29,1,1,0,0,0-.62,1.85c.53.34,1.12.53,1.58.81a1.49,1.49,0,0,1,.85,1.38c0,1.11-.74,1.8-2.08,1.8a5,5,0,0,1-1.47-.23Z"/>
          <path class="cls-2" d="M74.63,50a5.13,5.13,0,0,1-1.5-.23l-.06,0V48.19h.4v.08a1.33,1.33,0,0,0,1.37,1.25A1.1,1.1,0,0,0,76,48.42c0-.69-.47-.93-1.31-1.31-1-.44-1.69-.83-1.69-1.78a1.8,1.8,0,0,1,2-1.68,5.12,5.12,0,0,1,1.09.15l.42.08h.07v1.56h-.4v-.08a1.16,1.16,0,0,0-1.3-1.21,1,1,0,0,0-1,.89.94.94,0,0,0,.45.8,7.31,7.31,0,0,0,.86.45,7.24,7.24,0,0,1,.72.37,1.57,1.57,0,0,1,.89,1.45C76.79,49.29,76,50,74.63,50Zm-1.39-.37a4.94,4.94,0,0,0,1.39.21c1.27,0,2-.63,2-1.72a1.4,1.4,0,0,0-.81-1.3,7,7,0,0,0-.7-.36,7.43,7.43,0,0,1-.88-.46,1.08,1.08,0,0,1,.67-2,1.31,1.31,0,0,1,1.46,1.29h.08V44L76.07,44A5,5,0,0,0,75,43.83a1.64,1.64,0,0,0-1.81,1.51c0,.85.63,1.2,1.59,1.63s1.4.68,1.4,1.46a1.27,1.27,0,0,1-1.36,1.26,1.49,1.49,0,0,1-1.52-1.33h-.08Z"/>
        </g>
        <g>
          <path class="cls-2" d="M83,44.19c-1.07,0-1.42.22-1.46,1.17h-.26c0-.29,0-.58,0-.87,0-.06,0-.26,0-.62h5.21c0,.45,0,.74,0,.87s0,.3,0,.62h-.26c0-1.07-.37-1.17-1.46-1.17H84.3v4.43c0,.69,0,.91.74.91v.25l-1.1,0-1.12,0v-.25c.61,0,.75-.18.75-.86V44.19Z"/>
          <path class="cls-2" d="M82.74,49.87v-.42h.08c.55,0,.67-.14.67-.77v-4.4H83c-1.06,0-1.34.22-1.37,1.08v.08h-.42v-.09c0-.29,0-.58,0-.87,0-.06,0-.26,0-.62v-.09h5.38v.09c0,.45,0,.74,0,.87s0,.3,0,.62v.09H86.2v-.08c0-1-.28-1.08-1.37-1.08h-.44v4.34c0,.67,0,.83.66.83h.08v.42H85l-1.1,0-1.11,0Zm1.2-.2,1,0v-.08c-.71,0-.74-.33-.74-1V44.1h.61c1.07,0,1.52.11,1.54,1.17h.09c0-.27,0-.45,0-.54s0-.38,0-.79h-5c0,.31,0,.48,0,.54,0,.27,0,.52,0,.79h.09c.06-1,.55-1.17,1.54-1.17h.61v4.57c0,.69-.17.91-.75.94v.08Z"/>
        </g>
        <g>
          <path class="cls-2" d="M91.39,46.85a3,3,0,0,1,3-3.1,3.06,3.06,0,0,1,3.2,3.1,3,3,0,0,1-3.08,3.08A3.05,3.05,0,0,1,91.39,46.85Zm3.26,2.76a2.3,2.3,0,0,0,2.17-2.52c0-1.75-1-3-2.43-3s-2.16.94-2.16,2.62S93.34,49.61,94.65,49.61Z"/>
          <path class="cls-2" d="M94.56,50a3.17,3.17,0,1,1,3.16-3.16A3.09,3.09,0,0,1,94.56,50Zm-.13-6.17a3,3,0,1,0,.13,6,2.93,2.93,0,0,0,3-3A3,3,0,0,0,94.43,43.83Zm.21,5.86c-1.43,0-2.5-1.3-2.5-3S93,44,94.39,44s2.51,1.31,2.51,3.11A2.37,2.37,0,0,1,94.65,49.69Zm-.26-5.55c-1.3,0-2.08.95-2.08,2.53s1,2.85,2.34,2.85a2.21,2.21,0,0,0,2.09-2.44C96.74,45.37,95.75,44.14,94.39,44.14Z"/>
        </g>
        <g>
          <path class="cls-2" d="M107.67,45.36a2.26,2.26,0,0,0-2.22-1.27,2.4,2.4,0,0,0-2.4,2.6c0,1.69,1,2.88,2.43,2.88a2.79,2.79,0,0,0,2.37-1.33v.66a3.24,3.24,0,0,1-2.42,1,3,3,0,0,1-3.2-3,3.11,3.11,0,0,1,3.22-3.16,9.25,9.25,0,0,1,2.36.52c0,.19,0,.39,0,.58s0,.28,0,.52Z"/>
          <path class="cls-2" d="M105.42,50a3.06,3.06,0,0,1-3.29-3.1,3.2,3.2,0,0,1,3.3-3.25,5.59,5.59,0,0,1,1.74.34c.22.07.44.14.64.19l.07,0v.07c0,.19,0,.38,0,.58s0,.17,0,.31v.3h-.27l0,0a2.19,2.19,0,0,0-2.15-1.22,2.32,2.32,0,0,0-2.32,2.52c0,1.64,1,2.79,2.34,2.79a2.72,2.72,0,0,0,2.3-1.29l.15-.2v.95l0,0A3.32,3.32,0,0,1,105.42,50Zm0-6.17a3,3,0,0,0-3.14,3.08,2.9,2.9,0,0,0,3.12,2.93,3.16,3.16,0,0,0,2.34-1v-.39a2.78,2.78,0,0,1-2.28,1.16c-1.48,0-2.51-1.22-2.51-3A2.48,2.48,0,0,1,105.45,44a2.35,2.35,0,0,1,2.26,1.25v-.1c0-.14,0-.24,0-.31s0-.34,0-.51l-.59-.17A5.37,5.37,0,0,0,105.44,43.83Z"/>
        </g>
        <g>
          <path class="cls-2" d="M113.69,43.89l1.07,0v.25c-.51,0-.7.18-.7.66v2.14l2-2.3c.12-.13.19-.23.19-.34s-.12-.16-.4-.17v-.25l.87,0,1,0v.25a1.11,1.11,0,0,0-.93.34l-1.92,2,2.2,2.49a1.59,1.59,0,0,0,1.1.6v.25l-.86,0-.66,0a2.09,2.09,0,0,0-.46-.82l-1.79-2-.43.44v1.27c0,.65.05.91.61.91h.09v.25l-1.07,0-1.07,0v-.25h0c.53,0,.67-.22.67-.86v-3.9c0-.48-.15-.66-.58-.66h-.12v-.25Z"/>
          <path class="cls-2" d="M118.33,49.87h-.09l-.86,0-.65,0h-.07l0-.06a2,2,0,0,0-.44-.79l-1.73-2-.34.35v1.23c0,.66.05.83.53.83h.17v.42h-.09l-1.06,0-1.06,0h-.09v-.42h.11c.47,0,.59-.16.59-.77v-3.9c0-.44-.12-.58-.5-.58h-.2v-.42h.35l.8,0,.82,0h.33v.42h-.08c-.46,0-.61.15-.61.58v1.92l1.9-2.13c.11-.12.17-.2.17-.28s0-.07-.32-.08h-.08v-.42l.45,0,.51,0,.89,0h.23v.42h-.08a1,1,0,0,0-.87.32l-1.86,1.92,2.15,2.43a1.51,1.51,0,0,0,1,.58h.07Zm-3.85-3.08,1.85,2.12a2.18,2.18,0,0,1,.46.79h1.37V49.6a1.68,1.68,0,0,1-1.08-.62l-2.25-2.55,2-2a1.15,1.15,0,0,1,.91-.37v-.08h-.06l-.9,0-.52,0H116V44c.19,0,.4,0,.4.25a.61.61,0,0,1-.21.39L114,47.13V44.77c0-.5.2-.72.7-.74v-.08h-.16l-.82,0-.81,0h-.17V44h0c.47,0,.66.22.66.75v3.9c0,.59-.11.92-.7.94v.08l1,0,1,0v-.08c-.66,0-.7-.38-.7-1v-1.3Z"/>
        </g>
      </g>
      <g>
        <g>
          <path class="cls-2" d="M128.27,49.53c.39,0,.56-.17.65-.56s.07-.86.1-1.8c.06-1.46.08-2.2.08-2.22,0-.67-.07-.82-.74-.83v-.25l.75,0,.58,0,2.2,4.86L134,43.86l.64,0,.8,0v.25c-.62.06-.69.31-.69.95v.14l0,3.28c0,.79,0,1,.71,1v.25l-1,0-1,0v-.25c.55,0,.65-.18.65-.67V44.51l-2.21,5.33h-.2L129.42,45l0,3.76c0,.52.14.74.6.78v.25l-.89,0-.84,0Z"/>
          <path class="cls-2" d="M131.88,49.92h-.31l-2.07-4.55,0,3.38c0,.5.12.66.53.7h.08v.42H130l-.89,0h-.92v-.42h.08c.34,0,.49-.13.56-.5a14.79,14.79,0,0,0,.09-1.51v-.28c.06-1.42.08-2.18.08-2.22,0-.64,0-.74-.66-.75h-.08v-.42h.14l.69,0,.57,0h.06l2.14,4.74,2-4.73h.69l.74,0h.14v.41h-.08c-.54.05-.61.22-.61.86v.14l0,3.28c0,.81.06,1,.63,1h.08v.42h-.09l-1,0-1,0h-.09v-.42h.08c.51,0,.57-.14.57-.59V44.94Zm-.2-.17h.09l2.35-5.67v4.77c0,.5-.1.7-.65.75v.09l1,0,.94,0v-.08c-.67,0-.7-.38-.71-1.13l0-3.42c0-.63.07-.94.69-1v-.09H134l-2.13,5-2.25-5h-1.19V44c.64,0,.74.23.74.91,0,0,0,.78-.08,2.23v.28A14.42,14.42,0,0,1,129,49c-.09.41-.28.6-.64.63v.08h1.56V49.6c-.5-.07-.6-.4-.6-.85l0-4.14Z"/>
        </g>
        <g>
          <path class="cls-2" d="M140.25,49.53a.89.89,0,0,0,.86-.63l2-5.25h.13l2.15,5.16a1,1,0,0,0,.92.72v.25l-1,0-1.22,0v-.25c.44,0,.66-.15.66-.39a.54.54,0,0,0-.05-.21l-.62-1.5h-2l-.5,1.49a.93.93,0,0,0-.05.29c0,.23.13.29.5.33v.25l-1,0-.8,0ZM144,47.06l-.91-2.24-.82,2.24Z"/>
          <path class="cls-2" d="M142.16,49.87h-.09l-1,0-.79,0h-.09v-.42h.08a.81.81,0,0,0,.79-.58l2.06-5.3h.25l0,.05,2.15,5.16a.89.89,0,0,0,.85.67h.08v.42h-.09l-1,0-1.22,0h-.09v-.42h.08c.22,0,.58,0,.58-.31a.46.46,0,0,0,0-.18l-.6-1.45h-1.9l-.48,1.44a.85.85,0,0,0,0,.26c0,.14,0,.21.43.24h.08Zm3.21-.2.91,0v-.09a1.06,1.06,0,0,1-.92-.77l-2.13-5.11h0l-2,5.2a1,1,0,0,1-.86.68v.09l.71,0,.94,0v-.09c-.28,0-.5-.1-.5-.4a1,1,0,0,1,.05-.31l.52-1.55h2.13l.64,1.55a.62.62,0,0,1,.06.24c0,.14-.07.45-.66.48v.08Zm-1.27-2.53h-2l.94-2.56ZM142.37,47h1.48L143.07,45Z"/>
        </g>
        <g>
          <path class="cls-2" d="M155.13,48.5c.39.71.63,1.12,1.41,1.14v.18l-.47,0a1.53,1.53,0,0,1-1.5-1l-.77-1.27c-.16-.27-.25-.44-.36-.49a3.44,3.44,0,0,0-.68-.07v1.56c0,.65.06.91.61.91h.08v.25l-1.06,0-1,0v-.25h0c.52,0,.67-.22.67-.86v-3.9c0-.48-.16-.66-.58-.66h-.12v-.25l.9,0c.51,0,1-.06,1.35-.06,1.22,0,1.89.62,1.89,1.56a1.38,1.38,0,0,1-1.25,1.48Zm-1.77-1.74c.87,0,1.34-.43,1.34-1.23a1.27,1.27,0,0,0-1.41-1.39l-.54,0v2.52A2.42,2.42,0,0,0,153.36,46.75Z"/>
          <path class="cls-2" d="M156.07,49.93a1.62,1.62,0,0,1-1.57-1l-.83-1.37a1.07,1.07,0,0,0-.27-.37,2.61,2.61,0,0,0-.47,0h-.09v1.47c0,.66.06.83.53.83h.17v.42h-.09l-1.05,0-1,0h-.09v-.42h.11c.46,0,.59-.17.59-.77v-3.9c0-.43-.12-.58-.49-.58h-.2v-.42h.09c.47,0,.76,0,.89,0s.52,0,.76,0l.59,0c1.23,0,2,.61,2,1.64a1.44,1.44,0,0,1-1.21,1.54l.84,1.52c.39.7.6,1.08,1.34,1.1h.08v.34h-.08Zm-3.4-3,.27,0a1.87,1.87,0,0,1,.53.06c.12.05.2.2.34.43l.06.09.77,1.27c.43.71.75.92,1.43.92l.39,0v0c-.77,0-1-.5-1.4-1.18l-1-1.72.11,0a1.3,1.3,0,0,0,1.18-1.4c0-.92-.67-1.48-1.8-1.48l-.58,0c-.24,0-.49,0-.77,0l-.81,0V44h0c.46,0,.66.22.66.75v3.9c0,.58-.12.92-.7.94v.08l1,0,1,0v-.08c-.65,0-.7-.38-.7-1Zm.69-.13a2.5,2.5,0,0,1-.62-.08l-.06,0V44.08h.08l.54,0a1.35,1.35,0,0,1,1.49,1.48C154.78,46.37,154.28,46.84,153.36,46.84Zm-.52-.23a2.33,2.33,0,0,0,.52.06c.82,0,1.26-.4,1.26-1.15a1.19,1.19,0,0,0-1.33-1.31l-.45,0Z"/>
        </g>
        <g>
          <path class="cls-2" d="M162.55,43.89l1,0v.25c-.5,0-.69.18-.69.66v2.14l2-2.3c.12-.13.18-.23.18-.34s-.12-.16-.39-.17v-.25l.86,0,1,0v.25a1.09,1.09,0,0,0-.91.34l-1.89,2L166,48.93a1.56,1.56,0,0,0,1.08.6v.25l-.85,0-.65,0a2.1,2.1,0,0,0-.45-.82l-1.76-2-.42.44v1.27c0,.65.05.91.6.91h.08v.25l-1,0-1,0v-.25h0c.52,0,.66-.22.66-.86v-3.9c0-.48-.15-.66-.57-.66h-.12v-.25Z"/>
          <path class="cls-2" d="M167.12,49.87H167l-.84,0-.64,0h-.07l0-.06A2,2,0,0,0,165,49l-1.7-2-.33.35v1.23c0,.66.05.83.52.83h.17v.42h-.09l-1,0-1,0h-.09v-.42h.11c.45,0,.58-.17.58-.77v-3.9c0-.44-.12-.58-.49-.58h-.2v-.42h.34l.79,0,.8,0h.33v.42h-.08c-.45,0-.6.15-.6.58v1.92l1.87-2.13c.11-.12.16-.2.16-.28s0-.07-.31-.08h-.08v-.42l.44,0,.5,0,.88,0h.23v.42h-.08a1,1,0,0,0-.85.32l-1.84,1.92L166,48.87a1.48,1.48,0,0,0,1,.58h.07Zm-3.79-3.08,1.82,2.12a2.2,2.2,0,0,1,.45.79H167V49.6a1.65,1.65,0,0,1-1.06-.62l-2.21-2.55,1.94-2a1.13,1.13,0,0,1,.89-.37v-.08h-.06l-.88,0-.51,0h-.26V44c.19,0,.39,0,.39.25a.62.62,0,0,1-.21.39l-2.16,2.47V44.77c0-.5.2-.72.69-.74v-.08h-.15l-.81,0-.79,0h-.17V44h0c.46,0,.65.22.65.75v3.9c0,.59-.11.92-.69.94v.08l1,0,1,0v-.08c-.65,0-.69-.38-.69-1v-1.3Z"/>
        </g>
        <g>
          <path class="cls-2" d="M172.18,49.53h0c.52,0,.67-.22.67-.86v-3.9c0-.48-.16-.66-.58-.66h-.12v-.25c.6,0,1.15,0,1.66,0s1.24,0,2.27,0V44c0,.38,0,.78,0,1.22h-.23c0-.94-.55-1-1.84-1h-.5v2.29h.55c.84,0,1.19-.08,1.19-.57,0,0,0-.07,0-.1h.24c0,.32,0,.57,0,.75s0,.49,0,.81h-.24c0-.54-.28-.6-1-.6h-.73v1.83c0,.71.08.79,1,.79,1.18,0,1.61-.1,1.81-1.13h.22c0,.54-.13,1-.15,1.48l-2.39,0c-.58,0-1.2,0-1.86,0Z"/>
          <path class="cls-2" d="M172.09,49.87v-.42h.11c.46,0,.59-.17.59-.77v-3.9c0-.43-.12-.58-.49-.58h-.2v-.42h.09c.53,0,1.07,0,1.66,0,.41,0,1.14,0,2.27,0h.09V44c0,.18,0,.36,0,.56s0,.43,0,.67v.08h-.39v-.08c0-.83-.4-.94-1.75-.94h-.42v2.12h.46c.88,0,1.11-.1,1.11-.49a.33.33,0,0,0,0,0,.47.47,0,0,1,0-.06v-.08h.41v.31c0,.22,0,.39,0,.53s0,.39,0,.63v.26h-.41v-.08c0-.43-.16-.52-.91-.52h-.65v1.74c0,.64,0,.7.88.7,1.15,0,1.54-.08,1.73-1.06V48.2h.38v.09c0,.26,0,.5-.08.74s-.06.5-.07.74v.08h-.08l-2.39,0c-.66,0-1.27,0-1.86,0Zm.17-.26v.08c.56,0,1.15,0,1.78,0l2.31,0c0-.22,0-.44.07-.67s.05-.42.07-.64h-.06c-.22,1-.7,1.13-1.88,1.13-.92,0-1-.11-1-.87V46.72h.81c.69,0,1,.06,1.08.6h.08v-.09c0-.24,0-.45,0-.63s0-.32,0-.54v-.14h-.06v0c0,.61-.53.65-1.28.65h-.63V44.14h.59c1.2,0,1.85,0,1.92,1h.06c0-.2,0-.39,0-.57s0-.38,0-.57v-.07c-1.08,0-1.79,0-2.19,0-.56,0-1.07,0-1.58,0V44h0c.46,0,.66.22.66.75v3.9C173,49.25,172.84,49.59,172.26,49.61Z"/>
        </g>
        <g>
          <path class="cls-2" d="M183.12,44.19c-1,0-1.4.22-1.43,1.17h-.25c0-.29,0-.58,0-.87,0-.06,0-.26,0-.62h5.13c0,.45,0,.74,0,.87s0,.3,0,.62h-.25c0-1.07-.37-1.17-1.43-1.17h-.52v4.43c0,.69,0,.91.73.91v.25l-1.08,0-1.1,0v-.25c.6,0,.74-.18.74-.86V44.19Z"/>
          <path class="cls-2" d="M182.81,49.87v-.42h.08c.55,0,.66-.14.66-.77v-4.4h-.44c-1,0-1.32.22-1.35,1.08v.08h-.42v-.09c0-.29,0-.58,0-.87,0-.06,0-.26,0-.62v-.09h5.3v.09c0,.45,0,.74,0,.87s0,.3,0,.62v.09h-.42v-.08c0-1-.27-1.08-1.35-1.08h-.44v4.34c0,.67,0,.83.65.83h.08v.42h-.09l-1.08,0-1.1,0Zm1.18-.2,1,0v-.08c-.7,0-.73-.33-.73-1V44.1h.6c1.05,0,1.5.11,1.52,1.17h.08c0-.27,0-.45,0-.54s0-.38,0-.79h-5c0,.31,0,.48,0,.54,0,.27,0,.52,0,.79h.09c.06-1,.54-1.17,1.51-1.17h.6v4.57c0,.69-.17.91-.74.94v.08Z"/>
        </g>
        <g>
          <path class="cls-2" d="M191.55,49.53h.05c.49,0,.65-.23.65-.86v-3.9c0-.48-.16-.66-.58-.66h-.12v-.25l1.07,0,1.06,0v.25c-.63,0-.69.25-.69,1v3.46c0,.65.05.91.6.91h.08v.25l-1.07,0-1,0Z"/>
          <path class="cls-2" d="M193.76,49.87h-.09l-1.07,0-1,0h-.09v-.42h.13c.38,0,.56-.12.56-.77v-3.9c0-.43-.12-.58-.49-.58h-.2v-.42h.3l.85,0,.83,0h.31v.42h-.08c-.55,0-.6.17-.6,1v3.46c0,.66.05.83.52.83h.17Zm-1.16-.2,1,0v-.08c-.65,0-.69-.38-.69-1V45.16c0-.77.06-1.1.69-1.13v-.08h-.14l-.83,0-.86,0h-.12V44h0c.46,0,.66.22.66.75v3.9c0,.57-.12.93-.7.94v.08Z"/>
        </g>
        <g>
          <path class="cls-2" d="M199.71,46.14a22.39,22.39,0,0,0,.1,3c.08.31.23.41.62.44v.25l-.9,0-.9,0v-.25c.49,0,.64-.23.68-.76,0-.06.08-1.43.08-4,0-.52-.16-.61-.8-.61v-.25l.7,0,.62,0,3.87,4.78c0-.43,0-.8,0-1.12a23.76,23.76,0,0,0-.09-3c-.08-.31-.23-.41-.62-.44v-.25l.9,0,.9,0v.25c-.48,0-.63.22-.67.71s-.08,2-.09,5h-.29l-4.09-5C199.73,45.26,199.71,45.7,199.71,46.14Z"/>
          <path class="cls-2" d="M204.19,49.92h-.41l-4-4.9v.26c0,.29,0,.58,0,.86a18.92,18.92,0,0,0,.1,2.93c.07.27.18.35.55.37h.08v.42h-.09l-.89,0-.89,0h-.09v-.42h.08c.44,0,.56-.17.6-.69,0-.07.08-1.41.08-4,0-.45-.1-.53-.71-.53h-.08v-.42h.09l.69,0,.62,0h0l0,0,3.72,4.6c0-.33,0-.62,0-.88a21,21,0,0,0-.09-3c-.07-.27-.18-.35-.54-.37H203v-.42h.09l.89,0,.89,0H205v.42h-.08c-.43,0-.55.17-.59.64s-.08,2.06-.09,5Zm-.33-.17H204c0-2.9.07-4.57.09-4.94s.22-.73.67-.78v-.09L204,44l-.81,0V44c.38,0,.54.17.62.49a23.45,23.45,0,0,1,.09,3c0,.32,0,.69,0,1.12v.23l-4-4.93h-1.19V44c.59,0,.8.13.8.7,0,2.54-.06,4-.08,4.05,0,.49-.16.77-.68.83v.09l.81,0,.81,0v-.09c-.38,0-.54-.17-.62-.49a22.71,22.71,0,0,1-.1-3c0-.28,0-.57,0-.86s0-.33,0-.49v-.23Z"/>
        </g>
        <g>
          <path class="cls-2" d="M215.2,44.86c0,.07,0,.23,0,.46H215a1.83,1.83,0,0,0-2-1.24,2.4,2.4,0,0,0-2.5,2.57,2.74,2.74,0,0,0,2.71,2.89,2.83,2.83,0,0,0,1.33-.34V48c0-.45-.08-.6-.56-.6h0v-.24l.95,0,1,0v.24h-.05c-.41,0-.54.11-.54.49v1.57a6.28,6.28,0,0,1-2.31.5,3.08,3.08,0,0,1-3.25-3.19,3,3,0,0,1,3.24-3,7.6,7.6,0,0,1,2.28.47C215.2,44.55,215.2,44.76,215.2,44.86Z"/>
          <path class="cls-2" d="M212.93,50a3.16,3.16,0,0,1-3.33-3.27,3.1,3.1,0,0,1,3.32-3.07,6.84,6.84,0,0,1,2.07.4l.3.09v.06c0,.33,0,.54,0,.64s0,.23,0,.46v.09h-.37l0-.06A1.75,1.75,0,0,0,213,44.16a2.32,2.32,0,0,0-2.42,2.48,2.66,2.66,0,0,0,2.63,2.81,2.75,2.75,0,0,0,1.25-.3V48c0-.42-.06-.52-.48-.52h-.13V47h2.08v.41h-.13c-.37,0-.45.08-.45.4v1.63l-.05,0A6.35,6.35,0,0,1,212.93,50Zm0-6.17a2.9,2.9,0,0,0-3.15,2.9,3,3,0,0,0,3.16,3.1,6.14,6.14,0,0,0,2.22-.47V47.85c0-.41.15-.56.59-.57v-.07H214v.07c.51,0,.6.23.6.69v1.28l0,0a2.92,2.92,0,0,1-1.37.34,2.83,2.83,0,0,1-2.79-3A2.48,2.48,0,0,1,213,44,1.93,1.93,0,0,1,215,45.24h.08c0-.19,0-.32,0-.38s0-.28,0-.58l-.18-.05A6.7,6.7,0,0,0,212.93,43.83Z"/>
        </g>
      </g>
    </g>
  </g>
</svg>
